<svg xmlns="http://www.w3.org/2000/svg" viewBox="0 0 16 16" class="logo-svg">
    <path fill="currentColor" d="M10.425333333333333 5.799333333333333a1 1 0 0 0 0 -1l-1.4826666666666668 -2.5679999999999996a1 1 0 0 0 -1.7319999999999998 0L1.4546666666666666 12.2a1 1 0 0 0 0.8659999999999999 1.5h2.9653333333333336a1 1 0 0 0 0.8666666666666667 -0.5l4.272666666666666 -7.3999999999999995Zm3.4066666666666667 7.9013333333333335a1 1 0 0 0 0.8666666666666667 -1.5l-2.0893333333333333 -3.6186666666666665a1 1 0 0 0 -1.7319999999999998 0l-2.0893333333333333 3.6186666666666665a1 1 0 0 0 0.8659999999999999 1.5h4.1786666666666665Z"/>
</svg>

