<svg xmlns="http://www.w3.org/2000/svg" xmlns:xlink="http://www.w3.org/1999/xlink" xmlns:lucid="lucid" width="1428.66" height="665.34"><g transform="translate(-111.33887230376735 -17.385416666666686)" lucid:page-tab-id="0_0"><path d="M640 404.5a6 6 0 0 1 6-6h688a6 6 0 0 1 6 6v68a6 6 0 0 1-6 6H646a6 6 0 0 1-6-6zM640 226a6 6 0 0 1 6-6h688a6 6 0 0 1 6 6v68a6 6 0 0 1-6 6H646a6 6 0 0 1-6-6z" stroke="#6f7681" stroke-width="4" fill="#f2f3f5"/><path d="M163.47 485.1A3.1 3.1 0 0 0 166 490h370.68a3.1 3.1 0 0 0 2.53-4.9L354.8 224.9a4.25 4.25 0 0 0-6.93 0z" stroke="#008573" stroke-width="3" fill="#d7faf5" fill-opacity=".35"/><path d="M371.34 290c0 11.05-8.96 20-20 20-11.05 0-20-8.95-20-20s8.95-20 20-20c11.04 0 20 8.95 20 20zM331.34 370c0 11.05-8.96 20-20 20-11.05 0-20-8.95-20-20s8.95-20 20-20c11.04 0 20 8.95 20 20zM411.34 370c0 11.05-8.96 20-20 20-11.05 0-20-8.95-20-20s8.95-20 20-20c11.04 0 20 8.95 20 20z" stroke="#00c2a8" stroke-width="3" fill="#b8f5ed"/><path d="M350.28 312.56l-21.68 21.68" stroke="#00c2a8" stroke-width="3" fill="none"/><path d="M351.27 311.5l1.68-.06.7-.14-2.34 2.35-2.1-2.12.24-.26z" stroke="#00c2a8" stroke-width=".05" fill="#00c2a8"/><path d="M317.45 345.4l6.8-13.37 6.56 6.55z" stroke="#00c2a8" stroke-width="3" fill="#00c2a8"/><path d="M352.4 312.56l21.63 21.64" stroke="#00c2a8" stroke-width="3" fill="none"/><path d="M351.27 311.5l1.68-.06.38-.07.16.16-2.13 2.12-2.44-2.44z" stroke="#00c2a8" stroke-width=".05" fill="#00c2a8"/><path d="M385.18 345.34l-13.36-6.8 6.55-6.56z" stroke="#00c2a8" stroke-width="3" fill="#00c2a8"/><path d="M271.34 448.5c0 11.04-8.96 20-20 20-11.05 0-20-8.96-20-20 0-11.05 8.95-20 20-20 11.04 0 20 8.95 20 20zM332.72 448.5c0 11.04-8.95 20-20 20s-20-8.96-20-20c0-11.05 8.95-20 20-20s20 8.95 20 20z" stroke="#00c2a8" stroke-width="3" fill="#b8f5ed"/><path d="M308.73 392.15l-37.37 24.02" stroke="#00c2a8" stroke-width="3" fill="none"/><path d="M311.27 391.5l1.32-.04-3.1 1.98-1.5-2.35z" stroke="#00c2a8" stroke-width=".05" fill="#00c2a8"/><path d="M258.1 424.7l9.5-11.6 5 7.78z" stroke="#00c2a8" stroke-width="3" fill="#00c2a8"/><path d="M310 392.84v13.82M310 392.88v-1.54" stroke="#00c2a8" stroke-width="3" fill="none"/><path d="M310 422.42l-4.64-14.26h9.27z" stroke="#00c2a8" stroke-width="3" fill="#00c2a8"/><path d="M408.66 448.5c0 11.04-8.95 20-20 20-11.04 0-20-8.96-20-20 0-11.05 8.96-20 20-20 11.05 0 20 8.95 20 20zM471.34 448.5c0 11.04-8.96 20-20 20-11.05 0-20-8.96-20-20 0-11.05 8.95-20 20-20 11.04 0 20 8.95 20 20z" stroke="#00c2a8" stroke-width="3" fill="#b8f5ed"/><path d="M391.34 391.5v15.2M391.34 391.54V390" stroke="#00c2a8" stroke-width="3" fill="none"/><path d="M391.34 422.47l-4.64-14.27h9.27z" stroke="#00c2a8" stroke-width="3" fill="#00c2a8"/><path d="M392.6 390.82l38.73 25.2M392.63 390.84l-1.3-.84" stroke="#00c2a8" stroke-width="3" fill="none"/><path d="M444.55 424.63l-14.5-3.9 5.07-7.77z" stroke="#00c2a8" stroke-width="3" fill="#00c2a8"/><path d="M680 404.5a6 6 0 0 1 6-6h28a6 6 0 0 1 6 6v68a6 6 0 0 1-6 6h-28a6 6 0 0 1-6-6z" stroke="#6f7681" stroke-width="2" fill="#dfe3e8"/><path d="M720 260c0 11.05-8.95 20-20 20s-20-8.95-20-20 8.95-20 20-20 20 8.95 20 20zM790 260c0 11.05-8.95 20-20 20s-20-8.95-20-20 8.95-20 20-20 20 8.95 20 20z" stroke="#6f7681" stroke-width="3" fill="#dfe3e8"/><path d="M860 260c0 11.05-8.95 20-20 20s-20-8.95-20-20 8.95-20 20-20 20 8.95 20 20z" stroke="#00c2a8" stroke-width="3" fill="#b8f5ed"/><path d="M722.5 260h7.5" stroke="#6f7681" stroke-width="2" fill="none"/><path d="M722.53 261h-1.14l.1-.93-.03-1.07h1.06z" stroke="#6f7681" stroke-width=".05" fill="#6f7681"/><path d="M745.26 260L731 264.64v-9.28z" stroke="#6f7681" stroke-width="2" fill="#6f7681"/><path d="M699.8 238.54h120.5" stroke="#6f7681" stroke-width="2" fill="none"/><path d="M699.84 238.5l-1.45.06-2.6.5v-1.52h4.04z" stroke="#6f7681" stroke-width=".05" fill="#6f7681"/><path d="M835.58 238.54l-14.27 4.64v-9.27z" stroke="#6f7681" stroke-width="2" fill="#6f7681"/><path d="M860 260c0 11.05-8.95 20-20 20s-20-8.95-20-20 8.95-20 20-20 20 8.95 20 20zM930 260c0 11.05-8.95 20-20 20s-20-8.95-20-20 8.95-20 20-20 20 8.95 20 20zM1000 260c0 11.05-8.95 20-20 20s-20-8.95-20-20 8.95-20 20-20 20 8.95 20 20z" stroke="#6f7681" stroke-width="3" fill="#dfe3e8"/><path d="M862.5 260h7.5" stroke="#6f7681" stroke-width="2" fill="none"/><path d="M862.53 261h-1.14l.1-.93-.03-1.07h1.06z" stroke="#6f7681" stroke-width=".05" fill="#6f7681"/><path d="M885.26 260L871 264.64v-9.28z" stroke="#6f7681" stroke-width="2" fill="#6f7681"/><path d="M841 281.5h120.5" stroke="#6f7681" stroke-width="2" fill="none"/><path d="M839.93 281.5l1.1-.04v1.04H837v-1.36z" stroke="#6f7681" stroke-width=".05" fill="#6f7681"/><path d="M976.76 281.5l-14.26 4.64v-9.27z" stroke="#6f7681" stroke-width="2" fill="#6f7681"/><path d="M636.54 260h-5.45m-10.9 0h-10.9m-10.88 0h-10.9m-10.88 0h-10.9m-10.88 0h-5.44l-.94.07-.92.22-.87.35-.8.5-.72.6-.62.72-.5.8-.35.88-.2.9v7m-.03 14v14m-.02 13.98v14M543.4 342v7l-.08.94-.2.9-.38.88-.5.8-.6.72-.7.6-.82.5-.87.37-.9.23h-5.76m-11.48 0l-11.5.03m-11.48 0l-11.48.02m-11.5 0l-5.74.02" stroke="#008573" stroke-width="3" fill="none"/><path d="M638.04 261.5h-1.54v-3h1.53z" stroke="#008573" stroke-width=".05" fill="#008573"/><path d="M453.66 355l14.26-4.64v9.28z" stroke="#008573" stroke-width="3" fill="#008573"/><path d="M640 166a6 6 0 0 1 6-6h688a6 6 0 0 1 6 6v50.97a6 6 0 0 1-6 6H646a6 6 0 0 1-6-6z" stroke="#000" stroke-opacity="0" fill="#fff" fill-opacity="0"/><use xlink:href="#a" transform="matrix(1,0,0,1,645,165) translate(0 35.385416666666664)"/><use xlink:href="#b" transform="matrix(1,0,0,1,645,165) translate(165.625 35.385416666666664)"/><use xlink:href="#c" transform="matrix(1,0,0,1,645,165) translate(207.03125 35.385416666666664)"/><use xlink:href="#d" transform="matrix(1,0,0,1,645,165) translate(358.85416666666663 35.385416666666664)"/><use xlink:href="#e" transform="matrix(1,0,0,1,645,165) translate(469.27083333333326 35.385416666666664)"/><path d="M720 404.5a6 6 0 0 1 6-6h58a6 6 0 0 1 6 6v68a6 6 0 0 1-6 6h-58a6 6 0 0 1-6-6zM880 404.5a6 6 0 0 1 6-6h28a6 6 0 0 1 6 6v68a6 6 0 0 1-6 6h-28a6 6 0 0 1-6-6zM790 404.5a6 6 0 0 1 6-6h78a6 6 0 0 1 6 6v68a6 6 0 0 1-6 6h-78a6 6 0 0 1-6-6z" stroke="#6f7681" stroke-width="2" fill="#dfe3e8"/><path d="M700 396.03v-4.7m0-6.25v-9.4m0-6.25v-9.4m0-6.26v-9.4m0-6.25v-9.4m0-6.25v-9.4m0-6.25v-4.7" stroke="#6f7681" stroke-width="3" fill="none"/><path d="M701.5 397.53h-3V396h3z" stroke="#6f7681" stroke-width=".05" fill="#6f7681"/><path d="M700 286.36l4.64 14.26h-9.28z" stroke="#6f7681" stroke-width="3" fill="#6f7681"/><path d="M755 396.04v-5.06m0-6.73v-10.1m0-6.74v-10.1m0-6.73v-5.05l.07-.94.22-.92.35-.87.5-.8.6-.72.72-.62.8-.5.88-.35.9-.2 3.95-.08.94-.08.9-.22.88-.36.8-.5.72-.6.6-.72.5-.8.37-.87.23-.9v-4.86m.02-6.46l.02-9.7m.02-6.47v-4.85" stroke="#6f7681" stroke-width="3" fill="none"/><path d="M756.5 397.53h-3V396h3z" stroke="#6f7681" stroke-width=".05" fill="#6f7681"/><path d="M770 286.36l4.64 14.26h-9.28z" stroke="#6f7681" stroke-width="3" fill="#6f7681"/><path d="M901.17 395.05v-4.55m0-6.05v-9.08m0-6.06v-9.07m0-6.05v-9.1m0-6.04v-4.54l-.07-.94-.22-.92-.36-.86-.5-.8-.6-.72-.72-.62-.8-.5-.87-.35-.92-.23h-5m-6.68 0l-10.02-.03m-6.68 0l-10.03-.02m-6.7 0l-5-.02-.94-.07-.9-.22-.88-.35-.8-.5-.72-.6-.6-.72-.5-.8-.37-.88-.23-.9-.02-6.4m-.03-8.53l-.02-6.4" stroke="#6f7681" stroke-width="3" fill="none"/><path d="M902.67 396.55h-3V395h3z" stroke="#6f7681" stroke-width=".05" fill="#6f7681"/><path d="M840 286.36l4.64 14.26h-9.28z" stroke="#6f7681" stroke-width="3" fill="#6f7681"/><path d="M835 396.04v-4.16m0-5.54v-8.3m0-5.54v-8.3m0-5.55v-4.15l.07-.94.22-.92.35-.86.5-.8.6-.72.72-.62.8-.5.88-.35.9-.23h4.8m6.4 0l9.6-.02m6.4 0l9.58-.02m6.4 0l9.58-.02m6.4 0h4.8l.94-.07.9-.22.88-.35.8-.5.72-.6.6-.72.5-.8.37-.88.23-.9v-4.14m0-5.5l.03-8.27m0-5.5l.02-8.27m0-5.5l.02-4.14" stroke="#6f7681" stroke-width="3" fill="none"/><path d="M836.5 397.53h-3V396h3z" stroke="#6f7681" stroke-width=".05" fill="#6f7681"/><path d="M910 286.36l4.64 14.26h-9.28z" stroke="#6f7681" stroke-width="3" fill="#6f7681"/><path d="M640 484.5a6 6 0 0 1 6-6h688a6 6 0 0 1 6 6v58a6 6 0 0 1-6 6H646a6 6 0 0 1-6-6z" stroke="#000" stroke-opacity="0" fill="#fff" fill-opacity="0"/><use xlink:href="#f" transform="matrix(1,0,0,1,645,483.4990644382658) translate(0 37.135416666666664)"/><use xlink:href="#g" transform="matrix(1,0,0,1,645,483.4990644382658) translate(138.02083333333331 37.135416666666664)"/><use xlink:href="#h" transform="matrix(1,0,0,1,645,483.4990644382658) translate(165.62499999999997 37.135416666666664)"/><use xlink:href="#i" transform="matrix(1,0,0,1,645,483.4990644382658) translate(276.04166666666663 37.135416666666664)"/><use xlink:href="#j" transform="matrix(1,0,0,1,645,483.4990644382658) translate(510.67708333333337 37.135416666666664)"/><path d="M200 146a6 6 0 0 1 6-6h295.28a6 6 0 0 1 6 6v58a6 6 0 0 1-6 6H206a6 6 0 0 1-6-6z" stroke="#000" stroke-opacity="0" fill="#fff" fill-opacity="0"/><use xlink:href="#k" transform="matrix(1,0,0,1,205,145) translate(0 37.135416666666664)"/><use xlink:href="#l" transform="matrix(1,0,0,1,205,145) translate(96.61458333333331 37.135416666666664)"/><use xlink:href="#m" transform="matrix(1,0,0,1,205,145) translate(220.8333333333333 37.135416666666664)"/><path d="M131.34 276a6 6 0 0 1 6-6H274a6 6 0 0 1 6 6v23.75a6 6 0 0 1-6 6H137.34a6 6 0 0 1-6-6z" stroke="#000" stroke-opacity="0" fill="#fff" fill-opacity="0"/><use xlink:href="#n" transform="matrix(1,0,0,1,136.33887230376735,275) translate(0 20.07118055555555)"/><path d="M380 206a6 6 0 0 1 6-6h227.43a6 6 0 0 1 6 6v58a6 6 0 0 1-6 6H386a6 6 0 0 1-6-6z" stroke="#000" stroke-opacity="0" fill="#fff" fill-opacity="0"/><use xlink:href="#o" transform="matrix(1,0,0,1,385,205) translate(0 36.79253472222222)"/><path d="M378.54 235h-21.2a6 6 0 0 0-6 6v13.5" stroke="#3a414a" stroke-width="3" fill="none"/><path d="M380.04 236.5h-1.54v-3h1.53z" stroke="#3a414a" stroke-width=".05" fill="#3a414a"/><path d="M351.34 266.38l-7.07-7.07 7.07-7.92 7.07 7.93z" stroke="#3a414a" stroke-width="3" fill="#fff"/><path d="M640 43.4a6 6 0 0 1 6-6h868a6 6 0 0 1 6 6v113.2a6 6 0 0 1-6 6H646a6 6 0 0 1-6-6z" stroke="#ced4db" stroke-width="2" fill="#edf5ff"/><use xlink:href="#p" transform="matrix(1,0,0,1,656,53.385416666666686) translate(0 30.196180555555546)"/><use xlink:href="#q" transform="matrix(1,0,0,1,656,53.385416666666686) translate(34.505208333333314 30.196180555555546)"/><use xlink:href="#r" transform="matrix(1,0,0,1,656,53.385416666666686) translate(184.02777777777766 30.196180555555546)"/><use xlink:href="#s" transform="matrix(1,0,0,1,656,53.385416666666686) translate(264.5399305555554 30.196180555555546)"/><use xlink:href="#t" transform="matrix(1,0,0,1,656,53.385416666666686) translate(333.550347222222 30.196180555555546)"/><use xlink:href="#u" transform="matrix(1,0,0,1,656,53.385416666666686) translate(391.05902777777754 30.196180555555546)"/><use xlink:href="#v" transform="matrix(1,0,0,1,656,53.385416666666686) translate(517.5781249999997 30.196180555555546)"/><use xlink:href="#w" transform="matrix(1,0,0,1,656,53.385416666666686) translate(552.083333333333 30.196180555555546)"/><use xlink:href="#x" transform="matrix(1,0,0,1,656,53.385416666666686) translate(759.1145833333329 30.196180555555546)"/><use xlink:href="#y" transform="matrix(1,0,0,1,656,53.385416666666686) translate(805.1215277777774 30.196180555555546)"/><use xlink:href="#p" transform="matrix(1,0,0,1,656,53.385416666666686) translate(0 53.5034722222222)"/><use xlink:href="#z" transform="matrix(1,0,0,1,656,53.385416666666686) translate(34.505208333333314 53.5034722222222)"/><use xlink:href="#r" transform="matrix(1,0,0,1,656,53.385416666666686) translate(184.02777777777766 53.5034722222222)"/><use xlink:href="#s" transform="matrix(1,0,0,1,656,53.385416666666686) translate(264.5399305555554 53.5034722222222)"/><use xlink:href="#A" transform="matrix(1,0,0,1,656,53.385416666666686) translate(333.550347222222 53.5034722222222)"/><use xlink:href="#B" transform="matrix(1,0,0,1,656,53.385416666666686) translate(402.56076388888863 53.5034722222222)"/><use xlink:href="#v" transform="matrix(1,0,0,1,656,53.385416666666686) translate(437.06597222222194 53.5034722222222)"/><use xlink:href="#C" transform="matrix(1,0,0,1,656,53.385416666666686) translate(471.57118055555526 53.5034722222222)"/><use xlink:href="#D" transform="matrix(1,0,0,1,656,53.385416666666686) translate(678.6024305555552 53.5034722222222)"/><use xlink:href="#y" transform="matrix(1,0,0,1,656,53.385416666666686) translate(724.6093749999997 53.5034722222222)"/><use xlink:href="#p" transform="matrix(1,0,0,1,656,53.385416666666686) translate(0 76.81076388888886)"/><use xlink:href="#E" transform="matrix(1,0,0,1,656,53.385416666666686) translate(34.505208333333314 76.81076388888886)"/><use xlink:href="#t" transform="matrix(1,0,0,1,656,53.385416666666686) translate(264.53993055555543 76.81076388888886)"/><use xlink:href="#F" transform="matrix(1,0,0,1,656,53.385416666666686) translate(322.048611111111 76.81076388888886)"/><path d="M640 543.5a6 6 0 0 1 6-6h868a6 6 0 0 1 6 6v113.23a6 6 0 0 1-6 6H646a6 6 0 0 1-6-6z" stroke="#ced4db" stroke-width="2" fill="#edf5ff"/><g><use xlink:href="#p" transform="matrix(1,0,0,1,656,553.4990644382658) translate(0 30.196180555555546)"/><use xlink:href="#G" transform="matrix(1,0,0,1,656,553.4990644382658) translate(34.505208333333314 30.196180555555546)"/><use xlink:href="#H" transform="matrix(1,0,0,1,656,553.4990644382658) translate(207.0312499999999 30.196180555555546)"/><use xlink:href="#I" transform="matrix(1,0,0,1,656,553.4990644382658) translate(299.0451388888887 30.196180555555546)"/><use xlink:href="#J" transform="matrix(1,0,0,1,656,553.4990644382658) translate(356.55381944444423 30.196180555555546)"/><use xlink:href="#K" transform="matrix(1,0,0,1,656,553.4990644382658) translate(448.56770833333303 30.196180555555546)"/><use xlink:href="#v" transform="matrix(1,0,0,1,656,553.4990644382658) translate(506.0763888888886 30.196180555555546)"/><use xlink:href="#L" transform="matrix(1,0,0,1,656,553.4990644382658) translate(540.581597222222 30.196180555555546)"/><use xlink:href="#M" transform="matrix(1,0,0,1,656,553.4990644382658) translate(713.1076388888885 30.196180555555546)"/><use xlink:href="#p" transform="matrix(1,0,0,1,656,553.4990644382658) translate(0 53.5034722222222)"/><use xlink:href="#N" transform="matrix(1,0,0,1,656,553.4990644382658) translate(34.505208333333314 53.5034722222222)"/><use xlink:href="#H" transform="matrix(1,0,0,1,656,553.4990644382658) translate(184.02777777777766 53.5034722222222)"/><use xlink:href="#I" transform="matrix(1,0,0,1,656,553.4990644382658) translate(276.0416666666665 53.5034722222222)"/><use xlink:href="#O" transform="matrix(1,0,0,1,656,553.4990644382658) translate(333.55034722222206 53.5034722222222)"/><use xlink:href="#P" transform="matrix(1,0,0,1,656,553.4990644382658) translate(425.56423611111086 53.5034722222222)"/><use xlink:href="#p" transform="matrix(1,0,0,1,656,553.4990644382658) translate(0 76.81076388888886)"/><use xlink:href="#Q" transform="matrix(1,0,0,1,656,553.4990644382658) translate(34.505208333333314 76.81076388888886)"/><use xlink:href="#v" transform="matrix(1,0,0,1,656,553.4990644382658) translate(149.52256944444434 76.81076388888886)"/><use xlink:href="#R" transform="matrix(1,0,0,1,656,553.4990644382658) translate(184.02777777777766 76.81076388888886)"/></g><path d="M280.96 287.92l3.97.17 4.3.55 3.9.86 3.6 1.15 3.52 1.46 3.54 1.85 3.77 2.42 4.4 3.4 6.33 5.85 6.2 6.56" stroke="#3a414a" stroke-width="2" stroke-linejoin="round" fill="none"/><path d="M281.03 286.92l-.08 2-.98-.04v-2z" stroke="#3a414a" stroke-width=".05" fill="#3a414a"/><path d="M335 323.26l-13.17-7.17 6.73-6.4z" stroke="#3a414a" stroke-width="2" fill="#3a414a"/><path d="M160 543.5a6 6 0 0 1 6-6h428a6 6 0 0 1 6 6v113.23a6 6 0 0 1-6 6H166a6 6 0 0 1-6-6z" stroke="#000" stroke-opacity="0" fill="#fff" fill-opacity="0"/><g><use xlink:href="#S" transform="matrix(1,0,0,1,165,542.4990644382658) translate(0 36.635416666666664)"/><use xlink:href="#T" transform="matrix(1,0,0,1,165,542.4990644382658) translate(110.41666666666664 36.635416666666664)"/><use xlink:href="#U" transform="matrix(1,0,0,1,165,542.4990644382658) translate(179.42708333333331 36.635416666666664)"/><use xlink:href="#V" transform="matrix(1,0,0,1,165,542.4990644382658) translate(317.44791666666663 36.635416666666664)"/><use xlink:href="#W" transform="matrix(1,0,0,1,165,542.4990644382658) translate(358.85416666666663 36.635416666666664)"/><use xlink:href="#b" transform="matrix(1,0,0,1,165,542.4990644382658) translate(0 64.60416666666666)"/><use xlink:href="#X" transform="matrix(1,0,0,1,165,542.4990644382658) translate(41.40625 64.60416666666666)"/><use xlink:href="#Y" transform="matrix(1,0,0,1,165,542.4990644382658) translate(193.22916666666666 64.60416666666666)"/><use xlink:href="#Z" transform="matrix(1,0,0,1,165,542.4990644382658) translate(386.45833333333337 64.60416666666666)"/><use xlink:href="#aa" transform="matrix(1,0,0,1,165,542.4990644382658) translate(0 92.57291666666666)"/><use xlink:href="#ab" transform="matrix(1,0,0,1,165,542.4990644382658) translate(69.01041666666666 92.57291666666666)"/><use xlink:href="#ac" transform="matrix(1,0,0,1,165,542.4990644382658) translate(165.62499999999997 92.57291666666666)"/><use xlink:href="#ad" transform="matrix(1,0,0,1,165,542.4990644382658) translate(234.63541666666663 92.57291666666666)"/></g><path d="M920 404.5a6 6 0 0 1 6-6h88a6 6 0 0 1 6 6v68a6 6 0 0 1-6 6h-88a6 6 0 0 1-6-6z" stroke="#6f7681" stroke-width="2" fill="#dfe3e8"/><path d="M970 396.04v-5.16m0-6.87v-10.3m0-6.86v-10.3m0-6.87v-5.15l.06-.78.18-.77.3-.72.4-.67.52-.6.6-.5.67-.42.72-.3.77-.18.78-.06.78-.06.77-.2.72-.3.67-.4.6-.5.5-.6.42-.67.3-.74.18-.76v-4.98m.02-6.63l.02-9.97m0-6.63l.02-4.98" stroke="#6f7681" stroke-width="3" fill="none"/><path d="M971.5 397.53h-3V396h3z" stroke="#6f7681" stroke-width=".05" fill="#6f7681"/><path d="M980 286.36l4.64 14.26h-9.28z" stroke="#6f7681" stroke-width="3" fill="#6f7681"/><defs><path fill="#3a414a" d="M247-709C156-752 72-843 72-989c1-219 190-315 407-313 223 3 393 79 431 286l-159 29c-38-127-122-161-276-161-102 0-163 21-209 66-24 25-35 54-35 88 0 82 46 120 102 147 88 42 274 55 406 115 108 52 210 170 210 344C947-113 755 15 502 9 149 0 43-190 43-413h158c0 159 83 271 307 271 205 0 281-95 281-238 0-107-59-175-138-209-116-50-271-60-404-120" id="ae"/><path fill="#3a414a" d="M739-576c0-227-36-291-237-291-101 0-202 74-233 136-4 235 9 515-10 731L101-8c8-72 11-119 11-196 0-504-1-1198-1-1198h159v462c65-41 137-80 239-80 121 0 231 9 310 105 86 101 76 192 77 339 0 164-1 241-1 353 0 55 26 84 86 123L893 17c-80-45-154-98-154-225v-368" id="af"/><path fill="#3a414a" d="M234-311c0 105 56 165 149 165 210 0 315-158 341-199v-95c-57-35-131-64-235-64-136 1-255 75-255 193zm647-7c0 35 0 128 13 145 13 18 50 41 79 64L890 10c-52-40-112-65-130-166C682-81 580 6 383 6 212 6 78-135 78-301c0-76 30-165 89-226 95-97 196-121 314-121 126 0 189 18 243 51 0-189-69-280-239-280-138 0-201 30-281 173L74-786c96-182 230-242 409-242 242 0 398 155 398 380v330" id="ag"/><path fill="#3a414a" d="M83-1395c155-34 286-27 448-28 0 273 3 1211 3 1211 5 82 49 86 141 86 93 0 217-21 286-73l68 114C943-14 800 16 676 16c-85 0-161-14-205-38-85-47-93-127-93-186l-3-1060c-88-2-178-3-264 16" id="ah"/><path fill="#3a414a" d="M236-580c129-1 386-10 528-26-16-161-118-263-254-263-170 0-273 135-274 289zm273-441c377 0 414 380 414 518 0 20 0 35-1 43-280 19-508 31-686 33 0 153 86 284 290 284 143 0 227-79 266-133l123 109C874-122 760 10 522 10 224 10 78-203 78-516c0-286 148-505 431-505" id="ai"/><path fill="#3a414a" d="M373-869c-9 231-14 337-14 472 0 133 36 234 147 245 88 6 216 5 262-21 57-30 75-85 82-104l126 56c-10 28-33 119-145 184C773-3 701 6 616 6 432 6 310-13 239-161c-41-84-41-169-39-276 2-104 6-235 12-428-35-1-65 3-96 11l-20-146c29-10 78-13 117-12 0-70 1-164 1-234l158 1c0 66-1 160-2 228 117 1 425-2 439-2v147c-145 1-296-2-436 3" id="aj"/><path fill="#3a414a" d="M484-156c209 0 263-157 259-392-2-184-66-330-243-330-208 0-270 165-270 409 0 195 87 313 254 313zm-18-876c306 0 433 199 436 489C902-257 806 0 482-1 210-2 72-184 72-464c0-292 102-568 394-568" id="ak"/><path fill="#3a414a" d="M370-875c93-114 197-150 352-150 169 0 213 117 212 302H778c-4-81 8-142-84-142-101 0-228 36-328 259V0L210-1v-763c0-57-40-86-102-141l104-141c61 49 121 87 158 171" id="al"/><path fill="#3a414a" d="M394-1020h251v269H394v-269zm0 749h251V-2H394v-269" id="am"/><g id="a"><use transform="matrix(0.013020833333333332,0,0,0.013020833333333332,0,0)" xlink:href="#ae"/><use transform="matrix(0.013020833333333332,0,0,0.013020833333333332,13.802083333333332,0)" xlink:href="#af"/><use transform="matrix(0.013020833333333332,0,0,0.013020833333333332,27.604166666666664,0)" xlink:href="#ag"/><use transform="matrix(0.013020833333333332,0,0,0.013020833333333332,41.40625,0)" xlink:href="#ah"/><use transform="matrix(0.013020833333333332,0,0,0.013020833333333332,55.20833333333333,0)" xlink:href="#ai"/><use transform="matrix(0.013020833333333332,0,0,0.013020833333333332,69.01041666666666,0)" xlink:href="#ae"/><use transform="matrix(0.013020833333333332,0,0,0.013020833333333332,82.81249999999999,0)" xlink:href="#aj"/><use transform="matrix(0.013020833333333332,0,0,0.013020833333333332,96.61458333333331,0)" xlink:href="#ak"/><use transform="matrix(0.013020833333333332,0,0,0.013020833333333332,110.41666666666663,0)" xlink:href="#al"/><use transform="matrix(0.013020833333333332,0,0,0.013020833333333332,124.21874999999997,0)" xlink:href="#ai"/><use transform="matrix(0.013020833333333332,0,0,0.013020833333333332,138.02083333333331,0)" xlink:href="#am"/></g><path fill="#3a414a" d="M270-927c126-66 218-95 328-95 120 0 299 77 299 226v585c0 66 50 88 106 118L919 19c-88-43-180-94-180-223v-561c0-74-97-107-163-107-64 0-160 42-306 112V0L112 1v-706c0-178-8-204-32-298l160-37c10 24 22 64 30 113" id="an"/><g id="b"><use transform="matrix(0.013020833333333332,0,0,0.013020833333333332,0,0)" xlink:href="#ag"/><use transform="matrix(0.013020833333333332,0,0,0.013020833333333332,13.802083333333332,0)" xlink:href="#an"/></g><path fill="#3a414a" d="M313-1406h235v225H313v-225zM91-971c154-36 275-46 442-42 0 273 1 803 1 803 5 82 49 86 141 86 93 0 217-21 286-73l68 114C943-12 800 18 676 18c-85 0-161-14-205-38-85-47-93-127-93-186v-651c-49 0-163 6-258 28" id="ao"/><path fill="#3a414a" d="M765-1026c145 0 170 192 170 287v523c0 51 51 88 92 104L966 21C895 7 795-51 795-193v-580c0-35-4-100-64-100-48 0-100 46-162 181V0H428v-806c0-28-2-67-48-67-48 0-117 46-179 182V0H60l-3-815c0-93-13-143-30-192l150-40c15 32 29 124 31 170 46-80 133-149 206-149 97 0 154 79 154 149 43-79 105-149 197-149" id="ap"/><path fill="#3a414a" d="M152-600h787v156H152v-156" id="aq"/><path fill="#3a414a" d="M749-478c0-283-112-387-275-387-91 0-153 70-205 121v437c71 114 118 160 255 160 170 0 225-127 225-331zm157 19C906-191 799 7 524 7 412 7 332-28 269-84c-1 42-6 64-11 96L93-7c11-73 19-169 19-260 0-249-1-610-1-890 0-94-8-178-15-246l159-9c17 133 14 309 14 463 48-36 91-71 191-71 323 0 446 225 446 561" id="ar"/><path fill="#3a414a" d="M268-569c-65-35-116-103-116-214 1-173 163-246 338-246 122 0 298 40 380 141L757-777c-53-62-167-104-253-104-106 0-195 29-195 94 0 48 20 71 60 89 271 113 527 133 527 417C896-119 782-28 675 0c-56 13-116 20-173 20-256 0-384-135-384-350l157 1c0 134 69 206 224 206 123 0 242-53 242-163 0-63-31-93-86-134-77-55-282-94-387-149" id="as"/><path fill="#3a414a" d="M231-478c0 204 53 331 223 331 137 0 185-46 256-160v-437c-52-51-161-124-252-124-163 0-227 107-227 390zm637-674c0 304-1 607-1 911 0 83 8 169 18 234L721 12c-5-32-10-54-11-96C647-28 566 7 454 7 179 7 73-191 73-459c0-336 76-564 399-564 100 0 189 43 237 74 1-149 2-332-15-454l160-8c9 73 14 168 14 259" id="at"/><g id="c"><use transform="matrix(0.013020833333333332,0,0,0.013020833333333332,0,0)" xlink:href="#ao"/><use transform="matrix(0.013020833333333332,0,0,0.013020833333333332,13.802083333333332,0)" xlink:href="#aj"/><use transform="matrix(0.013020833333333332,0,0,0.013020833333333332,27.604166666666664,0)" xlink:href="#ai"/><use transform="matrix(0.013020833333333332,0,0,0.013020833333333332,41.40625,0)" xlink:href="#ap"/><use transform="matrix(0.013020833333333332,0,0,0.013020833333333332,55.20833333333333,0)" xlink:href="#aq"/><use transform="matrix(0.013020833333333332,0,0,0.013020833333333332,69.01041666666666,0)" xlink:href="#ar"/><use transform="matrix(0.013020833333333332,0,0,0.013020833333333332,82.81249999999999,0)" xlink:href="#ag"/><use transform="matrix(0.013020833333333332,0,0,0.013020833333333332,96.61458333333331,0)" xlink:href="#as"/><use transform="matrix(0.013020833333333332,0,0,0.013020833333333332,110.41666666666663,0)" xlink:href="#ai"/><use transform="matrix(0.013020833333333332,0,0,0.013020833333333332,124.21874999999997,0)" xlink:href="#at"/></g><path fill="#3a414a" d="M237 76c0 126 75 156 207 156h105c115 0 254-41 254-207 0-85-149-96-270-96-9 0-66 0-212 2-56 22-84 82-84 145zm239-633c129 0 228-52 228-149 0-129-85-168-212-168-136 0-239 73-239 165 0 116 93 152 223 152zM95-699c0-210 151-327 397-327 115 0 189 20 254 60 56-52 109-62 219-62v164c-46-9-108-7-135 17 26 47 30 89 30 137 0 189-154 303-379 303-71 0-134-7-199-32-19 22-43 57-43 98 0 76 54 118 180 118 26 0 154-2 181-2 188 0 361 59 361 249 0 259-174 364-418 364H440C229 388 80 291 80 82c0-100 32-171 87-219-57-42-85-113-85-191 0-91 32-151 74-199-34-38-61-100-61-172" id="au"/><g id="d"><use transform="matrix(0.013020833333333332,0,0,0.013020833333333332,0,0)" xlink:href="#as"/><use transform="matrix(0.013020833333333332,0,0,0.013020833333333332,13.802083333333332,0)" xlink:href="#aj"/><use transform="matrix(0.013020833333333332,0,0,0.013020833333333332,27.604166666666664,0)" xlink:href="#ak"/><use transform="matrix(0.013020833333333332,0,0,0.013020833333333332,41.40625,0)" xlink:href="#al"/><use transform="matrix(0.013020833333333332,0,0,0.013020833333333332,55.20833333333333,0)" xlink:href="#ag"/><use transform="matrix(0.013020833333333332,0,0,0.013020833333333332,69.01041666666666,0)" xlink:href="#au"/><use transform="matrix(0.013020833333333332,0,0,0.013020833333333332,82.81249999999999,0)" xlink:href="#ai"/></g><path fill="#3a414a" d="M230-527c5 377 206 377 330 377 156 0 231-65 283-152l126 91C936-169 843 7 564 7 460 7 337-1 241-73 111-174 71-328 71-527c0-367 178-491 493-491 176 0 303 112 343 229l-154 60c-11-41-40-136-200-136-221 0-323 99-323 338" id="av"/><g id="e"><use transform="matrix(0.013020833333333332,0,0,0.013020833333333332,0,0)" xlink:href="#ag"/><use transform="matrix(0.013020833333333332,0,0,0.013020833333333332,13.802083333333332,0)" xlink:href="#ah"/><use transform="matrix(0.013020833333333332,0,0,0.013020833333333332,27.604166666666664,0)" xlink:href="#ah"/><use transform="matrix(0.013020833333333332,0,0,0.013020833333333332,41.40625,0)" xlink:href="#ak"/><use transform="matrix(0.013020833333333332,0,0,0.013020833333333332,55.20833333333333,0)" xlink:href="#av"/><use transform="matrix(0.013020833333333332,0,0,0.013020833333333332,69.01041666666666,0)" xlink:href="#ag"/><use transform="matrix(0.013020833333333332,0,0,0.013020833333333332,82.81249999999999,0)" xlink:href="#aj"/><use transform="matrix(0.013020833333333332,0,0,0.013020833333333332,96.61458333333331,0)" xlink:href="#ak"/><use transform="matrix(0.013020833333333332,0,0,0.013020833333333332,110.41666666666663,0)" xlink:href="#al"/></g><path fill="#3a414a" d="M59-1292l155 1c51 191 178 382 251 532 83-155 213-387 265-532h157L888 5H731l-2-925c-74 141-191 345-202 381l-122-3c7 13-136-257-185-358V5H62" id="aw"/><g id="f"><use transform="matrix(0.013020833333333332,0,0,0.013020833333333332,0,0)" xlink:href="#aw"/><use transform="matrix(0.013020833333333332,0,0,0.013020833333333332,13.802083333333332,0)" xlink:href="#ai"/><use transform="matrix(0.013020833333333332,0,0,0.013020833333333332,27.604166666666664,0)" xlink:href="#ap"/><use transform="matrix(0.013020833333333332,0,0,0.013020833333333332,41.40625,0)" xlink:href="#ae"/><use transform="matrix(0.013020833333333332,0,0,0.013020833333333332,55.20833333333333,0)" xlink:href="#aj"/><use transform="matrix(0.013020833333333332,0,0,0.013020833333333332,69.01041666666666,0)" xlink:href="#ak"/><use transform="matrix(0.013020833333333332,0,0,0.013020833333333332,82.81249999999999,0)" xlink:href="#al"/><use transform="matrix(0.013020833333333332,0,0,0.013020833333333332,96.61458333333331,0)" xlink:href="#ai"/><use transform="matrix(0.013020833333333332,0,0,0.013020833333333332,110.41666666666663,0)" xlink:href="#am"/></g><use transform="matrix(0.013020833333333332,0,0,0.013020833333333332,0,0)" xlink:href="#ag" id="g"/><path fill="#3a414a" d="M401-274h251c2 89 7 177 7 266 0 197-84 325-251 401l-61-139c92-51 142-121 142-259h-88v-269" id="ax"/><g id="h"><use transform="matrix(0.013020833333333332,0,0,0.013020833333333332,0,0)" xlink:href="#ah"/><use transform="matrix(0.013020833333333332,0,0,0.013020833333333332,13.802083333333332,0)" xlink:href="#ao"/><use transform="matrix(0.013020833333333332,0,0,0.013020833333333332,27.604166666666664,0)" xlink:href="#an"/><use transform="matrix(0.013020833333333332,0,0,0.013020833333333332,41.40625,0)" xlink:href="#ai"/><use transform="matrix(0.013020833333333332,0,0,0.013020833333333332,55.20833333333333,0)" xlink:href="#ag"/><use transform="matrix(0.013020833333333332,0,0,0.013020833333333332,69.01041666666666,0)" xlink:href="#al"/><use transform="matrix(0.013020833333333332,0,0,0.013020833333333332,82.81249999999999,0)" xlink:href="#ax"/></g><path fill="#3a414a" d="M336 223c106 0 160-185 198-291-94-328-213-645-351-769-33-30-74-31-110-31v-153c33 0 83 4 111 8 167 25 329 401 442 726 74-217 140-506 148-733h158c0 60-5 117-14 168-65 353-166 683-298 994-53 135-131 234-280 234C165 376 56 270 56 0h156c0 177 44 223 124 223" id="ay"/><g id="i"><use transform="matrix(0.013020833333333332,0,0,0.013020833333333332,0,0)" xlink:href="#ar"/><use transform="matrix(0.013020833333333332,0,0,0.013020833333333332,13.802083333333332,0)" xlink:href="#ay"/><use transform="matrix(0.013020833333333332,0,0,0.013020833333333332,27.604166666666664,0)" xlink:href="#aj"/><use transform="matrix(0.013020833333333332,0,0,0.013020833333333332,41.40625,0)" xlink:href="#ai"/><use transform="matrix(0.013020833333333332,0,0,0.013020833333333332,55.20833333333333,0)" xlink:href="#aq"/><use transform="matrix(0.013020833333333332,0,0,0.013020833333333332,69.01041666666666,0)" xlink:href="#ag"/><use transform="matrix(0.013020833333333332,0,0,0.013020833333333332,82.81249999999999,0)" xlink:href="#at"/><use transform="matrix(0.013020833333333332,0,0,0.013020833333333332,96.61458333333331,0)" xlink:href="#at"/><use transform="matrix(0.013020833333333332,0,0,0.013020833333333332,110.41666666666663,0)" xlink:href="#al"/><use transform="matrix(0.013020833333333332,0,0,0.013020833333333332,124.21874999999997,0)" xlink:href="#ai"/><use transform="matrix(0.013020833333333332,0,0,0.013020833333333332,138.02083333333331,0)" xlink:href="#as"/><use transform="matrix(0.013020833333333332,0,0,0.013020833333333332,151.82291666666666,0)" xlink:href="#as"/><use transform="matrix(0.013020833333333332,0,0,0.013020833333333332,165.625,0)" xlink:href="#ag"/><use transform="matrix(0.013020833333333332,0,0,0.013020833333333332,179.42708333333334,0)" xlink:href="#ar"/><use transform="matrix(0.013020833333333332,0,0,0.013020833333333332,193.22916666666669,0)" xlink:href="#ah"/><use transform="matrix(0.013020833333333332,0,0,0.013020833333333332,207.03125000000003,0)" xlink:href="#ai"/></g><path fill="#3a414a" d="M763-527c0-204-54-331-224-331-137 0-185 46-256 160v436c52 51 109 114 200 114 163 0 280-96 280-379zM126 146c0-303 1-606 1-909 0-83-9-169-19-235l164-20c5 32 10 54 11 96 63-56 143-91 255-91 275 0 382 199 382 467C920-210 792 7 469 7 369 7 331-25 283-56c-1 149-1 332 16 453l-159 9c-9-73-14-169-14-260" id="az"/><g id="j"><use transform="matrix(0.013020833333333332,0,0,0.013020833333333332,0,0)" xlink:href="#as"/><use transform="matrix(0.013020833333333332,0,0,0.013020833333333332,13.802083333333332,0)" xlink:href="#az"/><use transform="matrix(0.013020833333333332,0,0,0.013020833333333332,27.604166666666664,0)" xlink:href="#ag"/><use transform="matrix(0.013020833333333332,0,0,0.013020833333333332,41.40625,0)" xlink:href="#av"/><use transform="matrix(0.013020833333333332,0,0,0.013020833333333332,55.20833333333333,0)" xlink:href="#ai"/></g><path fill="#3a414a" d="M293-618c127 17 186 52 293 52 101 0 156-91 156-179-3-73-28-118-112-127-24 0-52 6-85 22-99 47-178 92-252 142v90zm0-262c72-49 222-136 328-136 136 0 259 83 273 202 7 51 7 127-3 175-6 34-58 136-161 185 98 73 96 193 149 281 24 39 50 60 83 84L878 19C755-41 720-159 693-238c-50-145-275-217-399-231 0-1-3 367-1 469H136v-1228c0-61-10-114-23-155l153-44c9 23 27 68 27 134v413" id="aA"/><g id="k"><use transform="matrix(0.013020833333333332,0,0,0.013020833333333332,0,0)" xlink:href="#aw"/><use transform="matrix(0.013020833333333332,0,0,0.013020833333333332,13.802083333333332,0)" xlink:href="#ai"/><use transform="matrix(0.013020833333333332,0,0,0.013020833333333332,27.604166666666664,0)" xlink:href="#al"/><use transform="matrix(0.013020833333333332,0,0,0.013020833333333332,41.40625,0)" xlink:href="#aA"/><use transform="matrix(0.013020833333333332,0,0,0.013020833333333332,55.20833333333333,0)" xlink:href="#ah"/><use transform="matrix(0.013020833333333332,0,0,0.013020833333333332,69.01041666666666,0)" xlink:href="#ai"/></g><path fill="#3a414a" d="M784-900c0-208-123-245-369-251-61 0-106 4-151 5 0 135-1 537-1 533 36 1 70 1 103 1 286 0 418-60 418-288zM262 10L104 9v-1303c118 0 156-8 289-8 225 0 364 13 479 151 54 65 74 155 74 245 0 91-8 191-68 278-98 140-223 168-462 168-48 0-99-1-153-3 0 263-1 317-1 473" id="aB"/><g id="l"><use transform="matrix(0.013020833333333332,0,0,0.013020833333333332,0,0)" xlink:href="#aB"/><use transform="matrix(0.013020833333333332,0,0,0.013020833333333332,13.802083333333332,0)" xlink:href="#ag"/><use transform="matrix(0.013020833333333332,0,0,0.013020833333333332,27.604166666666664,0)" xlink:href="#aj"/><use transform="matrix(0.013020833333333332,0,0,0.013020833333333332,41.40625,0)" xlink:href="#al"/><use transform="matrix(0.013020833333333332,0,0,0.013020833333333332,55.20833333333333,0)" xlink:href="#ao"/><use transform="matrix(0.013020833333333332,0,0,0.013020833333333332,69.01041666666666,0)" xlink:href="#av"/><use transform="matrix(0.013020833333333332,0,0,0.013020833333333332,82.81249999999999,0)" xlink:href="#ao"/><use transform="matrix(0.013020833333333332,0,0,0.013020833333333332,96.61458333333331,0)" xlink:href="#ag"/></g><path fill="#3a414a" d="M403 9v-1153c-198 0-288 1-364 1v-155c122 0 576-1 764-1 73 0 122 12 140 15l-33 152c-73-17-247-11-347-12V9H403" id="aC"/><g id="m"><use transform="matrix(0.013020833333333332,0,0,0.013020833333333332,0,0)" xlink:href="#aC"/><use transform="matrix(0.013020833333333332,0,0,0.013020833333333332,13.802083333333332,0)" xlink:href="#al"/><use transform="matrix(0.013020833333333332,0,0,0.013020833333333332,27.604166666666664,0)" xlink:href="#ao"/><use transform="matrix(0.013020833333333332,0,0,0.013020833333333332,41.40625,0)" xlink:href="#ai"/></g><path fill="#3a414a" d="M954-635C954-275 813 4 492 13c-122 0-249-43-330-143C72-240 24-392 24-572c0-345 76-494 146-589 66-90 178-162 334-165 124 0 450 74 450 691zM492-140c246 0 304-248 304-506 0-115-17-268-70-371-58-114-128-156-216-156-95 0-152 28-210 104-69 89-118 231-118 493 0 104 28 258 84 331 49 65 118 105 226 105" id="aD"/><path fill="#3a414a" d="M560-1404l234 3v225l-234-3v-225zm67 1518l-1-978c-105-1-162 7-256 29l-28-142c154-37 274-46 441-42V118c0 145-61 269-299 269-123 0-267-22-393-227l126-98c109 169 177 169 263 169 112 0 145-82 147-117" id="aE"/><path fill="#3a414a" d="M874-75L749 30C725-6 681-42 633-80c-95-79-476-355-502-373v-120c157-129 474-384 607-462 30-17 51-31 86-42l47 157c-161 85-396 280-555 403C459-416 782-207 874-75" id="aF"/><path fill="#3a414a" d="M752 6C589-351 435-648 233-1001c0 303 1 812 1 1004H75v-1301l159 4c126 184 402 689 519 937-4-309-7-645 9-940h154c-18 394 0 886-5 1302" id="aG"/><path fill="#3a414a" d="M926-591v117C830-405 410-35 232 30l-68-139c175-94 436-304 577-417-126-90-370-268-484-374-27-25-49-44-68-74l118-102c106 126 532 418 619 485" id="aH"/><g id="n"><use transform="matrix(0.01085069444444444,0,0,0.01085069444444444,0,0)" xlink:href="#aD"/><use transform="matrix(0.01085069444444444,0,0,0.01085069444444444,11.501736111111107,0)" xlink:href="#ar"/><use transform="matrix(0.01085069444444444,0,0,0.01085069444444444,23.003472222222214,0)" xlink:href="#aE"/><use transform="matrix(0.01085069444444444,0,0,0.01085069444444444,34.50520833333332,0)" xlink:href="#aB"/><use transform="matrix(0.01085069444444444,0,0,0.01085069444444444,46.00694444444443,0)" xlink:href="#aj"/><use transform="matrix(0.01085069444444444,0,0,0.01085069444444444,57.508680555555536,0)" xlink:href="#al"/><use transform="matrix(0.01085069444444444,0,0,0.01085069444444444,69.01041666666664,0)" xlink:href="#aF"/><use transform="matrix(0.01085069444444444,0,0,0.01085069444444444,80.51215277777774,0)" xlink:href="#aG"/><use transform="matrix(0.01085069444444444,0,0,0.01085069444444444,92.01388888888886,0)" xlink:href="#ak"/><use transform="matrix(0.01085069444444444,0,0,0.01085069444444444,103.51562499999996,0)" xlink:href="#at"/><use transform="matrix(0.01085069444444444,0,0,0.01085069444444444,115.01736111111109,0)" xlink:href="#ai"/><use transform="matrix(0.01085069444444444,0,0,0.01085069444444444,126.5190972222222,0)" xlink:href="#aH"/></g><path fill="#3a414a" d="M652-540c78 122 190 302 246 367 18 16 49 50 91 61L930 22c-58-9-112-47-146-89-97-107-255-373-311-467-82-8-150-20-226-33l1 567H90v-1113c0-67-1-114-5-175 42-4 157-15 218-15 250 0 419 14 541 164 48 59 83 146 83 230 0 220-99 340-275 369zM507-678c164 0 268-37 265-217 0-55-15-105-57-153-67-78-183-102-407-102-26 0-34 0-63 1l2 430c99 18 178 41 260 41" id="aI"/><path fill="#3a414a" d="M568-1266c-163 2-156 116-156 245 113 2 367-7 432 21l-29 146c-21-7-42-13-98-13H412c1 154 3 863 3 867H258c0-25-1-720-3-867H112v-153h144c0-16-1-25-1-44 0-143 28-354 305-354 219 0 367 26 451 193l-126 77c-50-98-112-118-317-118" id="aJ"/><path fill="#3a414a" d="M397-269h251V0H397v-269" id="aK"/><path fill="#3a414a" d="M893-1326c-348-5-484 331-485 714 0 380 188 707 484 708v166c-360-3-644-317-644-874 0-532 214-859 645-872v158" id="aL"/><path fill="#3a414a" d="M146-1326v-158c431 13 645 340 645 872 0 557-284 871-644 874V96c296-1 484-328 484-708-1-383-137-719-485-714" id="aM"/><g id="o"><use transform="matrix(0.01085069444444444,0,0,0.01085069444444444,0,0)" xlink:href="#aD"/><use transform="matrix(0.01085069444444444,0,0,0.01085069444444444,11.501736111111107,0)" xlink:href="#ar"/><use transform="matrix(0.01085069444444444,0,0,0.01085069444444444,23.003472222222214,0)" xlink:href="#aE"/><use transform="matrix(0.01085069444444444,0,0,0.01085069444444444,34.50520833333332,0)" xlink:href="#aI"/><use transform="matrix(0.01085069444444444,0,0,0.01085069444444444,46.00694444444443,0)" xlink:href="#ai"/><use transform="matrix(0.01085069444444444,0,0,0.01085069444444444,57.508680555555536,0)" xlink:href="#aJ"/><use transform="matrix(0.01085069444444444,0,0,0.01085069444444444,69.01041666666664,0)" xlink:href="#aF"/><use transform="matrix(0.01085069444444444,0,0,0.01085069444444444,80.51215277777774,0)" xlink:href="#aG"/><use transform="matrix(0.01085069444444444,0,0,0.01085069444444444,92.01388888888886,0)" xlink:href="#ak"/><use transform="matrix(0.01085069444444444,0,0,0.01085069444444444,103.51562499999996,0)" xlink:href="#at"/><use transform="matrix(0.01085069444444444,0,0,0.01085069444444444,115.01736111111109,0)" xlink:href="#ai"/><use transform="matrix(0.01085069444444444,0,0,0.01085069444444444,126.5190972222222,0)" xlink:href="#aH"/><use transform="matrix(0.01085069444444444,0,0,0.01085069444444444,138.02083333333331,0)" xlink:href="#aK"/><use transform="matrix(0.01085069444444444,0,0,0.01085069444444444,149.52256944444443,0)" xlink:href="#at"/><use transform="matrix(0.01085069444444444,0,0,0.01085069444444444,161.02430555555554,0)" xlink:href="#ai"/><use transform="matrix(0.01085069444444444,0,0,0.01085069444444444,172.52604166666666,0)" xlink:href="#al"/><use transform="matrix(0.01085069444444444,0,0,0.01085069444444444,184.02777777777774,0)" xlink:href="#ai"/><use transform="matrix(0.01085069444444444,0,0,0.01085069444444444,195.52951388888889,0)" xlink:href="#aJ"/><use transform="matrix(0.01085069444444444,0,0,0.01085069444444444,207.03125,0)" xlink:href="#aL"/><use transform="matrix(0.01085069444444444,0,0,0.01085069444444444,218.53298611111111,0)" xlink:href="#aM"/></g><g id="p"><use transform="matrix(0.010850694444444439,0,0,0.010850694444444439,0,0)" xlink:href="#aJ"/><use transform="matrix(0.010850694444444439,0,0,0.010850694444444439,11.501736111111105,0)" xlink:href="#an"/></g><path fill="#3a414a" d="M992 334H42V178h950v156" id="aN"/><path fill="#3a414a" d="M374-1464h211c0 283-9 459-43 660l-154-17c20-134 24-319-14-437v-206" id="aO"/><g id="q"><use transform="matrix(0.010850694444444439,0,0,0.010850694444444439,0,0)" xlink:href="#au"/><use transform="matrix(0.010850694444444439,0,0,0.010850694444444439,11.501736111111105,0)" xlink:href="#ai"/><use transform="matrix(0.010850694444444439,0,0,0.010850694444444439,23.00347222222221,0)" xlink:href="#aj"/><use transform="matrix(0.010850694444444439,0,0,0.010850694444444439,34.505208333333314,0)" xlink:href="#aN"/><use transform="matrix(0.010850694444444439,0,0,0.010850694444444439,46.00694444444442,0)" xlink:href="#ao"/><use transform="matrix(0.010850694444444439,0,0,0.010850694444444439,57.50868055555553,0)" xlink:href="#aj"/><use transform="matrix(0.010850694444444439,0,0,0.010850694444444439,69.01041666666663,0)" xlink:href="#ai"/><use transform="matrix(0.010850694444444439,0,0,0.010850694444444439,80.51215277777773,0)" xlink:href="#ap"/><use transform="matrix(0.010850694444444439,0,0,0.010850694444444439,92.01388888888881,0)" xlink:href="#aF"/><use transform="matrix(0.010850694444444439,0,0,0.010850694444444439,103.51562499999993,0)" xlink:href="#aO"/><use transform="matrix(0.010850694444444439,0,0,0.010850694444444439,115.01736111111103,0)" xlink:href="#ag"/><use transform="matrix(0.010850694444444439,0,0,0.010850694444444439,126.51909722222214,0)" xlink:href="#ax"/></g><path fill="#3a414a" d="M655-245C548-387 451-521 351-648c-78 69-145 157-145 272 0 149 103 243 218 243 100 0 179-52 231-112zm-102-824c0-88-53-125-128-125-68 0-135 73-135 150 0 72 48 132 93 185 74-52 110-91 133-122 26-35 37-60 37-88zM985-64L863 32c-15-20-61-79-113-148C659-18 549 22 419 22 211 22 47-129 47-367c0-179 92-314 206-404-48-58-121-150-121-266 0-169 133-310 294-310 145 0 284 90 284 262 0 162-119 258-236 344 87 113 173 224 261 343 22-70 25-141 25-250l149 1c0 167-21 311-72 392 40 51 125 160 148 191" id="aP"/><g id="r"><use transform="matrix(0.010850694444444439,0,0,0.010850694444444439,0,0)" xlink:href="#aC"/><use transform="matrix(0.010850694444444439,0,0,0.010850694444444439,11.501736111111105,0)" xlink:href="#aH"/><use transform="matrix(0.010850694444444439,0,0,0.010850694444444439,23.00347222222221,0)" xlink:href="#aL"/><use transform="matrix(0.010850694444444439,0,0,0.010850694444444439,34.505208333333314,0)" xlink:href="#aP"/><use transform="matrix(0.010850694444444439,0,0,0.010850694444444439,46.00694444444442,0)" xlink:href="#aO"/><use transform="matrix(0.010850694444444439,0,0,0.010850694444444439,57.50868055555553,0)" xlink:href="#ag"/></g><g id="s"><use transform="matrix(0.010850694444444439,0,0,0.010850694444444439,0,0)" xlink:href="#as"/><use transform="matrix(0.010850694444444439,0,0,0.010850694444444439,11.501736111111105,0)" xlink:href="#ai"/><use transform="matrix(0.010850694444444439,0,0,0.010850694444444439,23.00347222222221,0)" xlink:href="#ah"/><use transform="matrix(0.010850694444444439,0,0,0.010850694444444439,34.505208333333314,0)" xlink:href="#aJ"/><use transform="matrix(0.010850694444444439,0,0,0.010850694444444439,46.00694444444442,0)" xlink:href="#ax"/></g><g id="t"><use transform="matrix(0.010850694444444439,0,0,0.010850694444444439,0,0)" xlink:href="#az"/><use transform="matrix(0.010850694444444439,0,0,0.010850694444444439,11.501736111111105,0)" xlink:href="#aj"/><use transform="matrix(0.010850694444444439,0,0,0.010850694444444439,23.00347222222221,0)" xlink:href="#al"/><use transform="matrix(0.010850694444444439,0,0,0.010850694444444439,34.505208333333314,0)" xlink:href="#am"/></g><path fill="#1071e5" d="M954-635C954-275 813 4 492 13c-122 0-249-43-330-143C72-240 24-392 24-572c0-345 76-494 146-589 66-90 178-162 334-165 124 0 450 74 450 691zM492-140c246 0 304-248 304-506 0-115-17-268-70-371-58-114-128-156-216-156-95 0-152 28-210 104-69 89-118 231-118 493 0 104 28 258 84 331 49 65 118 105 226 105" id="aQ"/><path fill="#1071e5" d="M749-478c0-283-112-387-275-387-91 0-153 70-205 121v437c71 114 118 160 255 160 170 0 225-127 225-331zm157 19C906-191 799 7 524 7 412 7 332-28 269-84c-1 42-6 64-11 96L93-7c11-73 19-169 19-260 0-249-1-610-1-890 0-94-8-178-15-246l159-9c17 133 14 309 14 463 48-36 91-71 191-71 323 0 446 225 446 561" id="aR"/><path fill="#1071e5" d="M560-1404l234 3v225l-234-3v-225zm67 1518l-1-978c-105-1-162 7-256 29l-28-142c154-37 274-46 441-42V118c0 145-61 269-299 269-123 0-267-22-393-227l126-98c109 169 177 169 263 169 112 0 145-82 147-117" id="aS"/><path fill="#1071e5" d="M784-900c0-208-123-245-369-251-61 0-106 4-151 5 0 135-1 537-1 533 36 1 70 1 103 1 286 0 418-60 418-288zM262 10L104 9v-1303c118 0 156-8 289-8 225 0 364 13 479 151 54 65 74 155 74 245 0 91-8 191-68 278-98 140-223 168-462 168-48 0-99-1-153-3 0 263-1 317-1 473" id="aT"/><path fill="#1071e5" d="M373-869c-9 231-14 337-14 472 0 133 36 234 147 245 88 6 216 5 262-21 57-30 75-85 82-104l126 56c-10 28-33 119-145 184C773-3 701 6 616 6 432 6 310-13 239-161c-41-84-41-169-39-276 2-104 6-235 12-428-35-1-65 3-96 11l-20-146c29-10 78-13 117-12 0-70 1-164 1-234l158 1c0 66-1 160-2 228 117 1 425-2 439-2v147c-145 1-296-2-436 3" id="aU"/><path fill="#1071e5" d="M370-875c93-114 197-150 352-150 169 0 213 117 212 302H778c-4-81 8-142-84-142-101 0-228 36-328 259V0L210-1v-763c0-57-40-86-102-141l104-141c61 49 121 87 158 171" id="aV"/><path fill="#1071e5" d="M874-75L749 30C725-6 681-42 633-80c-95-79-476-355-502-373v-120c157-129 474-384 607-462 30-17 51-31 86-42l47 157c-161 85-396 280-555 403C459-416 782-207 874-75" id="aW"/><path fill="#1071e5" d="M403 9v-1153c-198 0-288 1-364 1v-155c122 0 576-1 764-1 73 0 122 12 140 15l-33 152c-73-17-247-11-347-12V9H403" id="aX"/><path fill="#1071e5" d="M926-591v117C830-405 410-35 232 30l-68-139c175-94 436-304 577-417-126-90-370-268-484-374-27-25-49-44-68-74l118-102c106 126 532 418 619 485" id="aY"/><g id="u"><use transform="matrix(0.010850694444444439,0,0,0.010850694444444439,0,0)" xlink:href="#aQ"/><use transform="matrix(0.010850694444444439,0,0,0.010850694444444439,11.501736111111105,0)" xlink:href="#aR"/><use transform="matrix(0.010850694444444439,0,0,0.010850694444444439,23.00347222222221,0)" xlink:href="#aS"/><use transform="matrix(0.010850694444444439,0,0,0.010850694444444439,34.505208333333314,0)" xlink:href="#aT"/><use transform="matrix(0.010850694444444439,0,0,0.010850694444444439,46.00694444444442,0)" xlink:href="#aU"/><use transform="matrix(0.010850694444444439,0,0,0.010850694444444439,57.50868055555553,0)" xlink:href="#aV"/><use transform="matrix(0.010850694444444439,0,0,0.010850694444444439,69.01041666666663,0)" xlink:href="#aW"/><use transform="matrix(0.010850694444444439,0,0,0.010850694444444439,80.51215277777773,0)" xlink:href="#aX"/><use transform="matrix(0.010850694444444439,0,0,0.010850694444444439,92.01388888888881,0)" xlink:href="#aY"/><use transform="matrix(0.010850694444444439,0,0,0.010850694444444439,103.51562499999993,0)" xlink:href="#aM"/></g><g id="v"><use transform="matrix(0.010850694444444439,0,0,0.010850694444444439,0,0)" xlink:href="#aq"/><use transform="matrix(0.010850694444444439,0,0,0.010850694444444439,11.501736111111105,0)" xlink:href="#aH"/></g><path fill="#3a414a" d="M906 10c-57-41-111-82-133-168C687-70 589-2 433-2c-62 0-147-1-207-42-45-31-112-88-112-170-3-268 4-697-23-780l160-27c22 92 17 405 19 771 20 72 57 94 156 94 67-3 108-11 159-42 47-28 116-58 154-146v-676h158v781c2 52 51 100 91 132" id="aZ"/><path fill="#d916a8" d="M954-635C954-275 813 4 492 13c-122 0-249-43-330-143C72-240 24-392 24-572c0-345 76-494 146-589 66-90 178-162 334-165 124 0 450 74 450 691zM492-140c246 0 304-248 304-506 0-115-17-268-70-371-58-114-128-156-216-156-95 0-152 28-210 104-69 89-118 231-118 493 0 104 28 258 84 331 49 65 118 105 226 105" id="ba"/><path fill="#d916a8" d="M749-478c0-283-112-387-275-387-91 0-153 70-205 121v437c71 114 118 160 255 160 170 0 225-127 225-331zm157 19C906-191 799 7 524 7 412 7 332-28 269-84c-1 42-6 64-11 96L93-7c11-73 19-169 19-260 0-249-1-610-1-890 0-94-8-178-15-246l159-9c17 133 14 309 14 463 48-36 91-71 191-71 323 0 446 225 446 561" id="bb"/><path fill="#d916a8" d="M560-1404l234 3v225l-234-3v-225zm67 1518l-1-978c-105-1-162 7-256 29l-28-142c154-37 274-46 441-42V118c0 145-61 269-299 269-123 0-267-22-393-227l126-98c109 169 177 169 263 169 112 0 145-82 147-117" id="bc"/><path fill="#d916a8" d="M652-540c78 122 190 302 246 367 18 16 49 50 91 61L930 22c-58-9-112-47-146-89-97-107-255-373-311-467-82-8-150-20-226-33l1 567H90v-1113c0-67-1-114-5-175 42-4 157-15 218-15 250 0 419 14 541 164 48 59 83 146 83 230 0 220-99 340-275 369zM507-678c164 0 268-37 265-217 0-55-15-105-57-153-67-78-183-102-407-102-26 0-34 0-63 1l2 430c99 18 178 41 260 41" id="bd"/><path fill="#d916a8" d="M236-580c129-1 386-10 528-26-16-161-118-263-254-263-170 0-273 135-274 289zm273-441c377 0 414 380 414 518 0 20 0 35-1 43-280 19-508 31-686 33 0 153 86 284 290 284 143 0 227-79 266-133l123 109C874-122 760 10 522 10 224 10 78-203 78-516c0-286 148-505 431-505" id="be"/><path fill="#d916a8" d="M568-1266c-163 2-156 116-156 245 113 2 367-7 432 21l-29 146c-21-7-42-13-98-13H412c1 154 3 863 3 867H258c0-25-1-720-3-867H112v-153h144c0-16-1-25-1-44 0-143 28-354 305-354 219 0 367 26 451 193l-126 77c-50-98-112-118-317-118" id="bf"/><path fill="#d916a8" d="M874-75L749 30C725-6 681-42 633-80c-95-79-476-355-502-373v-120c157-129 474-384 607-462 30-17 51-31 86-42l47 157c-161 85-396 280-555 403C459-416 782-207 874-75" id="bg"/><path fill="#d916a8" d="M374-1464h211c0 283-9 459-43 660l-154-17c20-134 24-319-14-437v-206" id="bh"/><path fill="#d916a8" d="M234-311c0 105 56 165 149 165 210 0 315-158 341-199v-95c-57-35-131-64-235-64-136 1-255 75-255 193zm647-7c0 35 0 128 13 145 13 18 50 41 79 64L890 10c-52-40-112-65-130-166C682-81 580 6 383 6 212 6 78-135 78-301c0-76 30-165 89-226 95-97 196-121 314-121 126 0 189 18 243 51 0-189-69-280-239-280-138 0-201 30-281 173L74-786c96-182 230-242 409-242 242 0 398 155 398 380v330" id="bi"/><path fill="#d916a8" d="M401-274h251c2 89 7 177 7 266 0 197-84 325-251 401l-61-139c92-51 142-121 142-259h-88v-269" id="bj"/><g id="w"><use transform="matrix(0.010850694444444439,0,0,0.010850694444444439,0,0)" xlink:href="#aI"/><use transform="matrix(0.010850694444444439,0,0,0.010850694444444439,11.501736111111105,0)" xlink:href="#ai"/><use transform="matrix(0.010850694444444439,0,0,0.010850694444444439,23.00347222222221,0)" xlink:href="#as"/><use transform="matrix(0.010850694444444439,0,0,0.010850694444444439,34.505208333333314,0)" xlink:href="#aZ"/><use transform="matrix(0.010850694444444439,0,0,0.010850694444444439,46.00694444444442,0)" xlink:href="#ah"/><use transform="matrix(0.010850694444444439,0,0,0.010850694444444439,57.50868055555553,0)" xlink:href="#aj"/><use transform="matrix(0.010850694444444439,0,0,0.010850694444444439,69.01041666666663,0)" xlink:href="#aF"/><use transform="matrix(0.010850694444444439,0,0,0.010850694444444439,80.51215277777773,0)" xlink:href="#ba"/><use transform="matrix(0.010850694444444439,0,0,0.010850694444444439,92.01388888888881,0)" xlink:href="#bb"/><use transform="matrix(0.010850694444444439,0,0,0.010850694444444439,103.51562499999993,0)" xlink:href="#bc"/><use transform="matrix(0.010850694444444439,0,0,0.010850694444444439,115.01736111111103,0)" xlink:href="#bd"/><use transform="matrix(0.010850694444444439,0,0,0.010850694444444439,126.51909722222214,0)" xlink:href="#be"/><use transform="matrix(0.010850694444444439,0,0,0.010850694444444439,138.02083333333323,0)" xlink:href="#bf"/><use transform="matrix(0.010850694444444439,0,0,0.010850694444444439,149.52256944444434,0)" xlink:href="#bg"/><use transform="matrix(0.010850694444444439,0,0,0.010850694444444439,161.02430555555546,0)" xlink:href="#bh"/><use transform="matrix(0.010850694444444439,0,0,0.010850694444444439,172.52604166666657,0)" xlink:href="#bi"/><use transform="matrix(0.010850694444444439,0,0,0.010850694444444439,184.0277777777777,0)" xlink:href="#bj"/></g><path fill="#d916a8" d="M403 9v-1153c-198 0-288 1-364 1v-155c122 0 576-1 764-1 73 0 122 12 140 15l-33 152c-73-17-247-11-347-12V9H403" id="bk"/><path fill="#d916a8" d="M926-591v117C830-405 410-35 232 30l-68-139c175-94 436-304 577-417-126-90-370-268-484-374-27-25-49-44-68-74l118-102c106 126 532 418 619 485" id="bl"/><g id="x"><use transform="matrix(0.010850694444444439,0,0,0.010850694444444439,0,0)" xlink:href="#bk"/><use transform="matrix(0.010850694444444439,0,0,0.010850694444444439,11.501736111111105,0)" xlink:href="#bl"/><use transform="matrix(0.010850694444444439,0,0,0.010850694444444439,23.00347222222221,0)" xlink:href="#ax"/></g><g id="y"><use transform="matrix(0.010850694444444439,0,0,0.010850694444444439,0,0)" xlink:href="#aK"/><use transform="matrix(0.010850694444444439,0,0,0.010850694444444439,11.501736111111105,0)" xlink:href="#aK"/><use transform="matrix(0.010850694444444439,0,0,0.010850694444444439,23.00347222222221,0)" xlink:href="#aH"/></g><g id="z"><use transform="matrix(0.010850694444444439,0,0,0.010850694444444439,0,0)" xlink:href="#az"/><use transform="matrix(0.010850694444444439,0,0,0.010850694444444439,11.501736111111105,0)" xlink:href="#aZ"/><use transform="matrix(0.010850694444444439,0,0,0.010850694444444439,23.00347222222221,0)" xlink:href="#aj"/><use transform="matrix(0.010850694444444439,0,0,0.010850694444444439,34.505208333333314,0)" xlink:href="#aN"/><use transform="matrix(0.010850694444444439,0,0,0.010850694444444439,46.00694444444442,0)" xlink:href="#ao"/><use transform="matrix(0.010850694444444439,0,0,0.010850694444444439,57.50868055555553,0)" xlink:href="#aj"/><use transform="matrix(0.010850694444444439,0,0,0.010850694444444439,69.01041666666663,0)" xlink:href="#ai"/><use transform="matrix(0.010850694444444439,0,0,0.010850694444444439,80.51215277777773,0)" xlink:href="#ap"/><use transform="matrix(0.010850694444444439,0,0,0.010850694444444439,92.01388888888881,0)" xlink:href="#aF"/><use transform="matrix(0.010850694444444439,0,0,0.010850694444444439,103.51562499999993,0)" xlink:href="#aO"/><use transform="matrix(0.010850694444444439,0,0,0.010850694444444439,115.01736111111103,0)" xlink:href="#ag"/><use transform="matrix(0.010850694444444439,0,0,0.010850694444444439,126.51909722222214,0)" xlink:href="#ax"/></g><g id="A"><use transform="matrix(0.010850694444444439,0,0,0.010850694444444439,0,0)" xlink:href="#ao"/><use transform="matrix(0.010850694444444439,0,0,0.010850694444444439,11.501736111111105,0)" xlink:href="#aj"/><use transform="matrix(0.010850694444444439,0,0,0.010850694444444439,23.00347222222221,0)" xlink:href="#ai"/><use transform="matrix(0.010850694444444439,0,0,0.010850694444444439,34.505208333333314,0)" xlink:href="#ap"/><use transform="matrix(0.010850694444444439,0,0,0.010850694444444439,46.00694444444442,0)" xlink:href="#am"/></g><g id="B"><use transform="matrix(0.010850694444444439,0,0,0.010850694444444439,0,0)" xlink:href="#aC"/><use transform="matrix(0.010850694444444439,0,0,0.010850694444444439,11.501736111111105,0)" xlink:href="#aM"/></g><g id="C"><use transform="matrix(0.010850694444444439,0,0,0.010850694444444439,0,0)" xlink:href="#aI"/><use transform="matrix(0.010850694444444439,0,0,0.010850694444444439,11.501736111111105,0)" xlink:href="#ai"/><use transform="matrix(0.010850694444444439,0,0,0.010850694444444439,23.00347222222221,0)" xlink:href="#as"/><use transform="matrix(0.010850694444444439,0,0,0.010850694444444439,34.505208333333314,0)" xlink:href="#aZ"/><use transform="matrix(0.010850694444444439,0,0,0.010850694444444439,46.00694444444442,0)" xlink:href="#ah"/><use transform="matrix(0.010850694444444439,0,0,0.010850694444444439,57.50868055555553,0)" xlink:href="#aj"/><use transform="matrix(0.010850694444444439,0,0,0.010850694444444439,69.01041666666663,0)" xlink:href="#aF"/><use transform="matrix(0.010850694444444439,0,0,0.010850694444444439,80.51215277777773,0)" xlink:href="#aD"/><use transform="matrix(0.010850694444444439,0,0,0.010850694444444439,92.01388888888881,0)" xlink:href="#ar"/><use transform="matrix(0.010850694444444439,0,0,0.010850694444444439,103.51562499999993,0)" xlink:href="#aE"/><use transform="matrix(0.010850694444444439,0,0,0.010850694444444439,115.01736111111103,0)" xlink:href="#aI"/><use transform="matrix(0.010850694444444439,0,0,0.010850694444444439,126.51909722222214,0)" xlink:href="#ai"/><use transform="matrix(0.010850694444444439,0,0,0.010850694444444439,138.02083333333323,0)" xlink:href="#aJ"/><use transform="matrix(0.010850694444444439,0,0,0.010850694444444439,149.52256944444434,0)" xlink:href="#aF"/><use transform="matrix(0.010850694444444439,0,0,0.010850694444444439,161.02430555555546,0)" xlink:href="#aO"/><use transform="matrix(0.010850694444444439,0,0,0.010850694444444439,172.52604166666657,0)" xlink:href="#ag"/><use transform="matrix(0.010850694444444439,0,0,0.010850694444444439,184.0277777777777,0)" xlink:href="#ax"/></g><g id="D"><use transform="matrix(0.010850694444444439,0,0,0.010850694444444439,0,0)" xlink:href="#aC"/><use transform="matrix(0.010850694444444439,0,0,0.010850694444444439,11.501736111111105,0)" xlink:href="#aH"/><use transform="matrix(0.010850694444444439,0,0,0.010850694444444439,23.00347222222221,0)" xlink:href="#ax"/></g><g id="E"><use transform="matrix(0.010850694444444439,0,0,0.010850694444444439,0,0)" xlink:href="#aJ"/><use transform="matrix(0.010850694444444439,0,0,0.010850694444444439,11.501736111111105,0)" xlink:href="#al"/><use transform="matrix(0.010850694444444439,0,0,0.010850694444444439,23.00347222222221,0)" xlink:href="#ai"/><use transform="matrix(0.010850694444444439,0,0,0.010850694444444439,34.505208333333314,0)" xlink:href="#ai"/><use transform="matrix(0.010850694444444439,0,0,0.010850694444444439,46.00694444444442,0)" xlink:href="#aN"/><use transform="matrix(0.010850694444444439,0,0,0.010850694444444439,57.50868055555553,0)" xlink:href="#ao"/><use transform="matrix(0.010850694444444439,0,0,0.010850694444444439,69.01041666666663,0)" xlink:href="#aj"/><use transform="matrix(0.010850694444444439,0,0,0.010850694444444439,80.51215277777773,0)" xlink:href="#ai"/><use transform="matrix(0.010850694444444439,0,0,0.010850694444444439,92.01388888888881,0)" xlink:href="#ap"/><use transform="matrix(0.010850694444444439,0,0,0.010850694444444439,103.51562499999993,0)" xlink:href="#aF"/><use transform="matrix(0.010850694444444439,0,0,0.010850694444444439,115.01736111111103,0)" xlink:href="#aC"/><use transform="matrix(0.010850694444444439,0,0,0.010850694444444439,126.51909722222214,0)" xlink:href="#aH"/><use transform="matrix(0.010850694444444439,0,0,0.010850694444444439,138.02083333333323,0)" xlink:href="#aL"/><use transform="matrix(0.010850694444444439,0,0,0.010850694444444439,149.52256944444434,0)" xlink:href="#aP"/><use transform="matrix(0.010850694444444439,0,0,0.010850694444444439,161.02430555555546,0)" xlink:href="#as"/><use transform="matrix(0.010850694444444439,0,0,0.010850694444444439,172.52604166666657,0)" xlink:href="#ai"/><use transform="matrix(0.010850694444444439,0,0,0.010850694444444439,184.0277777777777,0)" xlink:href="#ah"/><use transform="matrix(0.010850694444444439,0,0,0.010850694444444439,195.5295138888888,0)" xlink:href="#aJ"/><use transform="matrix(0.010850694444444439,0,0,0.010850694444444439,207.03124999999994,0)" xlink:href="#ax"/></g><g id="F"><use transform="matrix(0.010850694444444439,0,0,0.010850694444444439,0,0)" xlink:href="#aD"/><use transform="matrix(0.010850694444444439,0,0,0.010850694444444439,11.501736111111105,0)" xlink:href="#ar"/><use transform="matrix(0.010850694444444439,0,0,0.010850694444444439,23.00347222222221,0)" xlink:href="#aE"/><use transform="matrix(0.010850694444444439,0,0,0.010850694444444439,34.505208333333314,0)" xlink:href="#aB"/><use transform="matrix(0.010850694444444439,0,0,0.010850694444444439,46.00694444444442,0)" xlink:href="#aj"/><use transform="matrix(0.010850694444444439,0,0,0.010850694444444439,57.50868055555553,0)" xlink:href="#al"/><use transform="matrix(0.010850694444444439,0,0,0.010850694444444439,69.01041666666663,0)" xlink:href="#aF"/><use transform="matrix(0.010850694444444439,0,0,0.010850694444444439,80.51215277777773,0)" xlink:href="#aC"/><use transform="matrix(0.010850694444444439,0,0,0.010850694444444439,92.01388888888881,0)" xlink:href="#aH"/><use transform="matrix(0.010850694444444439,0,0,0.010850694444444439,103.51562499999993,0)" xlink:href="#aM"/></g><g id="G"><use transform="matrix(0.010850694444444439,0,0,0.010850694444444439,0,0)" xlink:href="#au"/><use transform="matrix(0.010850694444444439,0,0,0.010850694444444439,11.501736111111105,0)" xlink:href="#ai"/><use transform="matrix(0.010850694444444439,0,0,0.010850694444444439,23.00347222222221,0)" xlink:href="#aj"/><use transform="matrix(0.010850694444444439,0,0,0.010850694444444439,34.505208333333314,0)" xlink:href="#aN"/><use transform="matrix(0.010850694444444439,0,0,0.010850694444444439,46.00694444444442,0)" xlink:href="#al"/><use transform="matrix(0.010850694444444439,0,0,0.010850694444444439,57.50868055555553,0)" xlink:href="#ai"/><use transform="matrix(0.010850694444444439,0,0,0.010850694444444439,69.01041666666663,0)" xlink:href="#aJ"/><use transform="matrix(0.010850694444444439,0,0,0.010850694444444439,80.51215277777773,0)" xlink:href="#aL"/><use transform="matrix(0.010850694444444439,0,0,0.010850694444444439,92.01388888888881,0)" xlink:href="#aP"/><use transform="matrix(0.010850694444444439,0,0,0.010850694444444439,103.51562499999993,0)" xlink:href="#as"/><use transform="matrix(0.010850694444444439,0,0,0.010850694444444439,115.01736111111103,0)" xlink:href="#ai"/><use transform="matrix(0.010850694444444439,0,0,0.010850694444444439,126.51909722222214,0)" xlink:href="#ah"/><use transform="matrix(0.010850694444444439,0,0,0.010850694444444439,138.02083333333323,0)" xlink:href="#aJ"/><use transform="matrix(0.010850694444444439,0,0,0.010850694444444439,149.52256944444434,0)" xlink:href="#ax"/></g><path fill="#1071e5" d="M484-156c209 0 263-157 259-392-2-184-66-330-243-330-208 0-270 165-270 409 0 195 87 313 254 313zm-18-876c306 0 433 199 436 489C902-257 806 0 482-1 210-2 72-184 72-464c0-292 102-568 394-568" id="bm"/><path fill="#1071e5" d="M568-1266c-163 2-156 116-156 245 113 2 367-7 432 21l-29 146c-21-7-42-13-98-13H412c1 154 3 863 3 867H258c0-25-1-720-3-867H112v-153h144c0-16-1-25-1-44 0-143 28-354 305-354 219 0 367 26 451 193l-126 77c-50-98-112-118-317-118" id="bn"/><path fill="#1071e5" d="M268-569c-65-35-116-103-116-214 1-173 163-246 338-246 122 0 298 40 380 141L757-777c-53-62-167-104-253-104-106 0-195 29-195 94 0 48 20 71 60 89 271 113 527 133 527 417C896-119 782-28 675 0c-56 13-116 20-173 20-256 0-384-135-384-350l157 1c0 134 69 206 224 206 123 0 242-53 242-163 0-63-31-93-86-134-77-55-282-94-387-149" id="bo"/><path fill="#1071e5" d="M236-580c129-1 386-10 528-26-16-161-118-263-254-263-170 0-273 135-274 289zm273-441c377 0 414 380 414 518 0 20 0 35-1 43-280 19-508 31-686 33 0 153 86 284 290 284 143 0 227-79 266-133l123 109C874-122 760 10 522 10 224 10 78-203 78-516c0-286 148-505 431-505" id="bp"/><g id="H"><use transform="matrix(0.010850694444444439,0,0,0.010850694444444439,0,0)" xlink:href="#bm"/><use transform="matrix(0.010850694444444439,0,0,0.010850694444444439,11.501736111111105,0)" xlink:href="#bn"/><use transform="matrix(0.010850694444444439,0,0,0.010850694444444439,23.00347222222221,0)" xlink:href="#bn"/><use transform="matrix(0.010850694444444439,0,0,0.010850694444444439,34.505208333333314,0)" xlink:href="#bo"/><use transform="matrix(0.010850694444444439,0,0,0.010850694444444439,46.00694444444442,0)" xlink:href="#bp"/><use transform="matrix(0.010850694444444439,0,0,0.010850694444444439,57.50868055555553,0)" xlink:href="#aU"/><use transform="matrix(0.010850694444444439,0,0,0.010850694444444439,69.01041666666663,0)" xlink:href="#am"/></g><path fill="#3a414a" d="M773-1158c-217 20-390 130-456 292-25 62-36 124-45 184 54-46 101-92 251-92 222 0 374 162 374 393C897-118 723 3 487 3 226 3 94-212 94-509c0-119 18-271 77-419 86-217 297-352 578-383zM262-440c0 168 93 290 225 290 144 0 251-77 251-231 0-136-85-238-224-238-133 0-252 93-252 179" id="bq"/><path fill="#3a414a" d="M605-570v-420c-73 129-226 323-318 420h318zM78-543c34-46 498-600 520-763h163v736h128v154H761V2H605v-415H138" id="br"/><g id="I"><use transform="matrix(0.010850694444444439,0,0,0.010850694444444439,0,0)" xlink:href="#aZ"/><use transform="matrix(0.010850694444444439,0,0,0.010850694444444439,11.501736111111105,0)" xlink:href="#bq"/><use transform="matrix(0.010850694444444439,0,0,0.010850694444444439,23.00347222222221,0)" xlink:href="#br"/><use transform="matrix(0.010850694444444439,0,0,0.010850694444444439,34.505208333333314,0)" xlink:href="#ax"/></g><path fill="#1071e5" d="M83-1395c155-34 286-27 448-28 0 273 3 1211 3 1211 5 82 49 86 141 86 93 0 217-21 286-73l68 114C943-14 800 16 676 16c-85 0-161-14-205-38-85-47-93-127-93-186l-3-1060c-88-2-178-3-264 16" id="bs"/><path fill="#1071e5" d="M270-927c126-66 218-95 328-95 120 0 299 77 299 226v585c0 66 50 88 106 118L919 19c-88-43-180-94-180-223v-561c0-74-97-107-163-107-64 0-160 42-306 112V0L112 1v-706c0-178-8-204-32-298l160-37c10 24 22 64 30 113" id="bt"/><path fill="#1071e5" d="M237 76c0 126 75 156 207 156h105c115 0 254-41 254-207 0-85-149-96-270-96-9 0-66 0-212 2-56 22-84 82-84 145zm239-633c129 0 228-52 228-149 0-129-85-168-212-168-136 0-239 73-239 165 0 116 93 152 223 152zM95-699c0-210 151-327 397-327 115 0 189 20 254 60 56-52 109-62 219-62v164c-46-9-108-7-135 17 26 47 30 89 30 137 0 189-154 303-379 303-71 0-134-7-199-32-19 22-43 57-43 98 0 76 54 118 180 118 26 0 154-2 181-2 188 0 361 59 361 249 0 259-174 364-418 364H440C229 388 80 291 80 82c0-100 32-171 87-219-57-42-85-113-85-191 0-91 32-151 74-199-34-38-61-100-61-172" id="bu"/><path fill="#1071e5" d="M739-576c0-227-36-291-237-291-101 0-202 74-233 136-4 235 9 515-10 731L101-8c8-72 11-119 11-196 0-504-1-1198-1-1198h159v462c65-41 137-80 239-80 121 0 231 9 310 105 86 101 76 192 77 339 0 164-1 241-1 353 0 55 26 84 86 123L893 17c-80-45-154-98-154-225v-368" id="bv"/><g id="J"><use transform="matrix(0.010850694444444439,0,0,0.010850694444444439,0,0)" xlink:href="#bs"/><use transform="matrix(0.010850694444444439,0,0,0.010850694444444439,11.501736111111105,0)" xlink:href="#bp"/><use transform="matrix(0.010850694444444439,0,0,0.010850694444444439,23.00347222222221,0)" xlink:href="#bt"/><use transform="matrix(0.010850694444444439,0,0,0.010850694444444439,34.505208333333314,0)" xlink:href="#bu"/><use transform="matrix(0.010850694444444439,0,0,0.010850694444444439,46.00694444444442,0)" xlink:href="#aU"/><use transform="matrix(0.010850694444444439,0,0,0.010850694444444439,57.50868055555553,0)" xlink:href="#bv"/><use transform="matrix(0.010850694444444439,0,0,0.010850694444444439,69.01041666666663,0)" xlink:href="#am"/></g><g id="K"><use transform="matrix(0.010850694444444439,0,0,0.010850694444444439,0,0)" xlink:href="#aZ"/><use transform="matrix(0.010850694444444439,0,0,0.010850694444444439,11.501736111111105,0)" xlink:href="#bq"/><use transform="matrix(0.010850694444444439,0,0,0.010850694444444439,23.00347222222221,0)" xlink:href="#br"/><use transform="matrix(0.010850694444444439,0,0,0.010850694444444439,34.505208333333314,0)" xlink:href="#aM"/></g><path fill="#3a414a" d="M88-3c0-209 22-950-3-1282 82-6 145-15 261-14 206 0 402 81 402 297 0 96-25 179-86 235 155 52 280 184 280 374C942-168 793-23 626-3 460 17 282-11 88-3zm503-981c0-154-172-180-336-161 8 107 2 225 2 342 146-3 196 4 286-51 27-16 48-71 48-130zm192 575c0-162-154-251-304-240-56 0-147 3-224 2-2 237-3 418-4 494 146 0 212 16 333 0 106-13 199-112 199-256" id="bw"/><path fill="#3a414a" d="M860-863c-50 85-168 268-248 375 78 103 212 310 232 323 6 9 84 12 106 3V-9C875 4 827-3 768-43c-72-47-176-218-260-336C358-184 201 0 186 18L65-84c8-11 189-239 345-427-84-118-198-275-330-449l130-101c124 170 226 321 308 437 72-87 128-183 198-306 20-35 30-72 34-89l158-1c-6 49-16 106-48 157" id="bx"/><g id="L"><use transform="matrix(0.010850694444444439,0,0,0.010850694444444439,0,0)" xlink:href="#aD"/><use transform="matrix(0.010850694444444439,0,0,0.010850694444444439,11.501736111111105,0)" xlink:href="#az"/><use transform="matrix(0.010850694444444439,0,0,0.010850694444444439,23.00347222222221,0)" xlink:href="#aj"/><use transform="matrix(0.010850694444444439,0,0,0.010850694444444439,34.505208333333314,0)" xlink:href="#ao"/><use transform="matrix(0.010850694444444439,0,0,0.010850694444444439,46.00694444444442,0)" xlink:href="#ak"/><use transform="matrix(0.010850694444444439,0,0,0.010850694444444439,57.50868055555553,0)" xlink:href="#an"/><use transform="matrix(0.010850694444444439,0,0,0.010850694444444439,69.01041666666663,0)" xlink:href="#aF"/><use transform="matrix(0.010850694444444439,0,0,0.010850694444444439,80.51215277777773,0)" xlink:href="#bw"/><use transform="matrix(0.010850694444444439,0,0,0.010850694444444439,92.01388888888881,0)" xlink:href="#ak"/><use transform="matrix(0.010850694444444439,0,0,0.010850694444444439,103.51562499999993,0)" xlink:href="#bx"/><use transform="matrix(0.010850694444444439,0,0,0.010850694444444439,115.01736111111103,0)" xlink:href="#aF"/><use transform="matrix(0.010850694444444439,0,0,0.010850694444444439,126.51909722222214,0)" xlink:href="#at"/><use transform="matrix(0.010850694444444439,0,0,0.010850694444444439,138.02083333333323,0)" xlink:href="#ay"/><use transform="matrix(0.010850694444444439,0,0,0.010850694444444439,149.52256944444434,0)" xlink:href="#an"/></g><path fill="#3a414a" d="M413 5C389-187 102-1063 8-1286l152-53c101 252 236 646 334 1014 74-314 242-752 343-1000l151 53C890-1041 592-196 574 4" id="by"/><path fill="#3a414a" d="M537-209C500-127 410 6 212 3c-27-1-43-5-60-12-5-104-15-574-69-781-16-59-56-149-77-186l148-76c117 175 137 672 138 903 119 0 181-153 181-412v-263h140v304c0 158 41 271 72 373 90 0 164-161 164-534 0-124-12-269-24-339h156c5 47 8 230 8 310C976-194 873 20 594 0c-17-64-43-147-57-209" id="bz"/><path fill="#3a414a" d="M390-1020h251v269H390v-269zm3 746h251c2 89 7 177 7 266 0 197-84 325-251 401l-61-139c92-51 142-121 142-259h-88v-269" id="bA"/><g id="M"><use transform="matrix(0.010850694444444439,0,0,0.010850694444444439,0,0)" xlink:href="#aw"/><use transform="matrix(0.010850694444444439,0,0,0.010850694444444439,11.501736111111105,0)" xlink:href="#ai"/><use transform="matrix(0.010850694444444439,0,0,0.010850694444444439,23.00347222222221,0)" xlink:href="#ap"/><use transform="matrix(0.010850694444444439,0,0,0.010850694444444439,34.505208333333314,0)" xlink:href="#by"/><use transform="matrix(0.010850694444444439,0,0,0.010850694444444439,46.00694444444442,0)" xlink:href="#ao"/><use transform="matrix(0.010850694444444439,0,0,0.010850694444444439,57.50868055555553,0)" xlink:href="#ai"/><use transform="matrix(0.010850694444444439,0,0,0.010850694444444439,69.01041666666663,0)" xlink:href="#bz"/><use transform="matrix(0.010850694444444439,0,0,0.010850694444444439,80.51215277777773,0)" xlink:href="#aH"/><use transform="matrix(0.010850694444444439,0,0,0.010850694444444439,92.01388888888881,0)" xlink:href="#aH"/><use transform="matrix(0.010850694444444439,0,0,0.010850694444444439,103.51562499999993,0)" xlink:href="#bA"/></g><g id="N"><use transform="matrix(0.010850694444444439,0,0,0.010850694444444439,0,0)" xlink:href="#bz"/><use transform="matrix(0.010850694444444439,0,0,0.010850694444444439,11.501736111111105,0)" xlink:href="#al"/><use transform="matrix(0.010850694444444439,0,0,0.010850694444444439,23.00347222222221,0)" xlink:href="#ao"/><use transform="matrix(0.010850694444444439,0,0,0.010850694444444439,34.505208333333314,0)" xlink:href="#aj"/><use transform="matrix(0.010850694444444439,0,0,0.010850694444444439,46.00694444444442,0)" xlink:href="#ai"/><use transform="matrix(0.010850694444444439,0,0,0.010850694444444439,57.50868055555553,0)" xlink:href="#aL"/><use transform="matrix(0.010850694444444439,0,0,0.010850694444444439,69.01041666666663,0)" xlink:href="#aP"/><use transform="matrix(0.010850694444444439,0,0,0.010850694444444439,80.51215277777773,0)" xlink:href="#as"/><use transform="matrix(0.010850694444444439,0,0,0.010850694444444439,92.01388888888881,0)" xlink:href="#ai"/><use transform="matrix(0.010850694444444439,0,0,0.010850694444444439,103.51562499999993,0)" xlink:href="#ah"/><use transform="matrix(0.010850694444444439,0,0,0.010850694444444439,115.01736111111103,0)" xlink:href="#aJ"/><use transform="matrix(0.010850694444444439,0,0,0.010850694444444439,126.51909722222214,0)" xlink:href="#ax"/></g><path fill="#1071e5" d="M230-527c5 377 206 377 330 377 156 0 231-65 283-152l126 91C936-169 843 7 564 7 460 7 337-1 241-73 111-174 71-328 71-527c0-367 178-491 493-491 176 0 303 112 343 229l-154 60c-11-41-40-136-200-136-221 0-323 99-323 338" id="bB"/><path fill="#1071e5" d="M234-311c0 105 56 165 149 165 210 0 315-158 341-199v-95c-57-35-131-64-235-64-136 1-255 75-255 193zm647-7c0 35 0 128 13 145 13 18 50 41 79 64L890 10c-52-40-112-65-130-166C682-81 580 6 383 6 212 6 78-135 78-301c0-76 30-165 89-226 95-97 196-121 314-121 126 0 189 18 243 51 0-189-69-280-239-280-138 0-201 30-281 173L74-786c96-182 230-242 409-242 242 0 398 155 398 380v330" id="bC"/><g id="O"><use transform="matrix(0.010850694444444439,0,0,0.010850694444444439,0,0)" xlink:href="#bB"/><use transform="matrix(0.010850694444444439,0,0,0.010850694444444439,11.501736111111105,0)" xlink:href="#bv"/><use transform="matrix(0.010850694444444439,0,0,0.010850694444444439,23.00347222222221,0)" xlink:href="#bC"/><use transform="matrix(0.010850694444444439,0,0,0.010850694444444439,34.505208333333314,0)" xlink:href="#bt"/><use transform="matrix(0.010850694444444439,0,0,0.010850694444444439,46.00694444444442,0)" xlink:href="#bu"/><use transform="matrix(0.010850694444444439,0,0,0.010850694444444439,57.50868055555553,0)" xlink:href="#bp"/><use transform="matrix(0.010850694444444439,0,0,0.010850694444444439,69.01041666666663,0)" xlink:href="#am"/></g><path fill="#3a414a" d="M844-1483l32 154c-101 9-197 9-364 13V101c178-4 264-8 376 5v162c-120-19-363-2-534-4 5-544-4-1173-2-1734 156-3 388-4 492-13" id="bD"/><path fill="#3a414a" d="M487-147c166 0 263-87 263-221 0-152-131-229-263-289-132 60-263 137-263 289 0 134 97 221 263 221zm0-674c108-27 183-102 183-168 0-79-65-147-185-147s-185 68-185 147c0 66 79 141 187 168zm-2-472c219 0 342 135 342 308 0 103-82 208-170 247 112 54 252 178 252 360C909-156 746 9 487 9S65-156 65-378c0-182 140-306 252-360-88-39-174-144-174-247 0-173 123-308 342-308" id="bE"/><path fill="#3a414a" d="M199-1483c104 9 335 10 492 13 2 557-7 1184-2 1734-171 2-414-15-534 4V106c111-13 199-9 376-5v-1417c-167-4-263-4-364-13" id="bF"/><g id="P"><use transform="matrix(0.010850694444444439,0,0,0.010850694444444439,0,0)" xlink:href="#aP"/><use transform="matrix(0.010850694444444439,0,0,0.010850694444444439,11.501736111111105,0)" xlink:href="#bD"/><use transform="matrix(0.010850694444444439,0,0,0.010850694444444439,23.00347222222221,0)" xlink:href="#aZ"/><use transform="matrix(0.010850694444444439,0,0,0.010850694444444439,34.505208333333314,0)" xlink:href="#bE"/><use transform="matrix(0.010850694444444439,0,0,0.010850694444444439,46.00694444444442,0)" xlink:href="#bF"/><use transform="matrix(0.010850694444444439,0,0,0.010850694444444439,57.50868055555553,0)" xlink:href="#aM"/><use transform="matrix(0.010850694444444439,0,0,0.010850694444444439,69.01041666666663,0)" xlink:href="#bA"/></g><g id="Q"><use transform="matrix(0.010850694444444439,0,0,0.010850694444444439,0,0)" xlink:href="#ao"/><use transform="matrix(0.010850694444444439,0,0,0.010850694444444439,11.501736111111105,0)" xlink:href="#at"/><use transform="matrix(0.010850694444444439,0,0,0.010850694444444439,23.00347222222221,0)" xlink:href="#aL"/><use transform="matrix(0.010850694444444439,0,0,0.010850694444444439,34.505208333333314,0)" xlink:href="#aP"/><use transform="matrix(0.010850694444444439,0,0,0.010850694444444439,46.00694444444442,0)" xlink:href="#as"/><use transform="matrix(0.010850694444444439,0,0,0.010850694444444439,57.50868055555553,0)" xlink:href="#ai"/><use transform="matrix(0.010850694444444439,0,0,0.010850694444444439,69.01041666666663,0)" xlink:href="#ah"/><use transform="matrix(0.010850694444444439,0,0,0.010850694444444439,80.51215277777773,0)" xlink:href="#aJ"/><use transform="matrix(0.010850694444444439,0,0,0.010850694444444439,92.01388888888881,0)" xlink:href="#aM"/></g><path fill="#3a414a" d="M152-1298c309-7 384-4 697-1v152c-123 0-171-5-267-5v1000c89-1 174-3 267 3V1C579-12 459 0 155 3v-149c117-6 167-5 267-5v-1000c-66 1-158 1-264 7" id="bG"/><path fill="#3a414a" d="M709-954c-93-144-223-213-475-196 2 271-3 875-4 1006 275 3 469 42 553-202 67-195 13-472-74-608zM67 3c1-200 23-937-4-1294 81-8 126-13 225-13 271 0 427 80 550 259 114 171 162 429 110 677C900-132 739-14 559 3 395 19 257 3 67 3" id="bH"/><g id="R"><use transform="matrix(0.010850694444444439,0,0,0.010850694444444439,0,0)" xlink:href="#ae"/><use transform="matrix(0.010850694444444439,0,0,0.010850694444444439,11.501736111111105,0)" xlink:href="#az"/><use transform="matrix(0.010850694444444439,0,0,0.010850694444444439,23.00347222222221,0)" xlink:href="#ag"/><use transform="matrix(0.010850694444444439,0,0,0.010850694444444439,34.505208333333314,0)" xlink:href="#av"/><use transform="matrix(0.010850694444444439,0,0,0.010850694444444439,46.00694444444442,0)" xlink:href="#ai"/><use transform="matrix(0.010850694444444439,0,0,0.010850694444444439,57.50868055555553,0)" xlink:href="#bG"/><use transform="matrix(0.010850694444444439,0,0,0.010850694444444439,69.01041666666663,0)" xlink:href="#bH"/><use transform="matrix(0.010850694444444439,0,0,0.010850694444444439,80.51215277777773,0)" xlink:href="#bA"/></g><path fill="#3a414a" d="M141 3v-1301h161v1147h521c59-3 77-7 121-22l41 146C938-11 900 3 825 3H141" id="bI"/><g id="S"><use transform="matrix(0.013020833333333332,0,0,0.013020833333333332,0,0)" xlink:href="#bI"/><use transform="matrix(0.013020833333333332,0,0,0.013020833333333332,13.802083333333332,0)" xlink:href="#ak"/><use transform="matrix(0.013020833333333332,0,0,0.013020833333333332,27.604166666666664,0)" xlink:href="#au"/><use transform="matrix(0.013020833333333332,0,0,0.013020833333333332,41.40625,0)" xlink:href="#ao"/><use transform="matrix(0.013020833333333332,0,0,0.013020833333333332,55.20833333333333,0)" xlink:href="#av"/><use transform="matrix(0.013020833333333332,0,0,0.013020833333333332,69.01041666666666,0)" xlink:href="#ag"/><use transform="matrix(0.013020833333333332,0,0,0.013020833333333332,82.81249999999999,0)" xlink:href="#ah"/></g><g id="T"><use transform="matrix(0.013020833333333332,0,0,0.013020833333333332,0,0)" xlink:href="#at"/><use transform="matrix(0.013020833333333332,0,0,0.013020833333333332,13.802083333333332,0)" xlink:href="#ag"/><use transform="matrix(0.013020833333333332,0,0,0.013020833333333332,27.604166666666664,0)" xlink:href="#aj"/><use transform="matrix(0.013020833333333332,0,0,0.013020833333333332,41.40625,0)" xlink:href="#ag"/></g><g id="U"><use transform="matrix(0.013020833333333332,0,0,0.013020833333333332,0,0)" xlink:href="#as"/><use transform="matrix(0.013020833333333332,0,0,0.013020833333333332,13.802083333333332,0)" xlink:href="#aj"/><use transform="matrix(0.013020833333333332,0,0,0.013020833333333332,27.604166666666664,0)" xlink:href="#al"/><use transform="matrix(0.013020833333333332,0,0,0.013020833333333332,41.40625,0)" xlink:href="#aZ"/><use transform="matrix(0.013020833333333332,0,0,0.013020833333333332,55.20833333333333,0)" xlink:href="#av"/><use transform="matrix(0.013020833333333332,0,0,0.013020833333333332,69.01041666666666,0)" xlink:href="#aj"/><use transform="matrix(0.013020833333333332,0,0,0.013020833333333332,82.81249999999999,0)" xlink:href="#aZ"/><use transform="matrix(0.013020833333333332,0,0,0.013020833333333332,96.61458333333331,0)" xlink:href="#al"/><use transform="matrix(0.013020833333333332,0,0,0.013020833333333332,110.41666666666663,0)" xlink:href="#ai"/></g><g id="V"><use transform="matrix(0.013020833333333332,0,0,0.013020833333333332,0,0)" xlink:href="#ao"/><use transform="matrix(0.013020833333333332,0,0,0.013020833333333332,13.802083333333332,0)" xlink:href="#as"/></g><g id="W"><use transform="matrix(0.013020833333333332,0,0,0.013020833333333332,0,0)" xlink:href="#aE"/><use transform="matrix(0.013020833333333332,0,0,0.013020833333333332,13.802083333333332,0)" xlink:href="#aZ"/><use transform="matrix(0.013020833333333332,0,0,0.013020833333333332,27.604166666666664,0)" xlink:href="#as"/><use transform="matrix(0.013020833333333332,0,0,0.013020833333333332,41.40625,0)" xlink:href="#aj"/></g><g id="X"><use transform="matrix(0.013020833333333332,0,0,0.013020833333333332,0,0)" xlink:href="#ak"/><use transform="matrix(0.013020833333333332,0,0,0.013020833333333332,13.802083333333332,0)" xlink:href="#an"/><use transform="matrix(0.013020833333333332,0,0,0.013020833333333332,27.604166666666664,0)" xlink:href="#aq"/><use transform="matrix(0.013020833333333332,0,0,0.013020833333333332,41.40625,0)" xlink:href="#aj"/><use transform="matrix(0.013020833333333332,0,0,0.013020833333333332,55.20833333333333,0)" xlink:href="#af"/><use transform="matrix(0.013020833333333332,0,0,0.013020833333333332,69.01041666666666,0)" xlink:href="#ai"/><use transform="matrix(0.013020833333333332,0,0,0.013020833333333332,82.81249999999999,0)" xlink:href="#aq"/><use transform="matrix(0.013020833333333332,0,0,0.013020833333333332,96.61458333333331,0)" xlink:href="#aJ"/><use transform="matrix(0.013020833333333332,0,0,0.013020833333333332,110.41666666666663,0)" xlink:href="#ah"/><use transform="matrix(0.013020833333333332,0,0,0.013020833333333332,124.21874999999997,0)" xlink:href="#ay"/></g><g id="Y"><use transform="matrix(0.013020833333333332,0,0,0.013020833333333332,0,0)" xlink:href="#ao"/><use transform="matrix(0.013020833333333332,0,0,0.013020833333333332,13.802083333333332,0)" xlink:href="#an"/><use transform="matrix(0.013020833333333332,0,0,0.013020833333333332,27.604166666666664,0)" xlink:href="#aj"/><use transform="matrix(0.013020833333333332,0,0,0.013020833333333332,41.40625,0)" xlink:href="#ai"/><use transform="matrix(0.013020833333333332,0,0,0.013020833333333332,55.20833333333333,0)" xlink:href="#az"/><use transform="matrix(0.013020833333333332,0,0,0.013020833333333332,69.01041666666666,0)" xlink:href="#al"/><use transform="matrix(0.013020833333333332,0,0,0.013020833333333332,82.81249999999999,0)" xlink:href="#ai"/><use transform="matrix(0.013020833333333332,0,0,0.013020833333333332,96.61458333333331,0)" xlink:href="#aj"/><use transform="matrix(0.013020833333333332,0,0,0.013020833333333332,110.41666666666663,0)" xlink:href="#ag"/><use transform="matrix(0.013020833333333332,0,0,0.013020833333333332,124.21874999999997,0)" xlink:href="#aj"/><use transform="matrix(0.013020833333333332,0,0,0.013020833333333332,138.02083333333331,0)" xlink:href="#ao"/><use transform="matrix(0.013020833333333332,0,0,0.013020833333333332,151.82291666666666,0)" xlink:href="#ak"/><use transform="matrix(0.013020833333333332,0,0,0.013020833333333332,165.625,0)" xlink:href="#an"/></g><g id="Z"><use transform="matrix(0.013020833333333332,0,0,0.013020833333333332,0,0)" xlink:href="#ak"/><use transform="matrix(0.013020833333333332,0,0,0.013020833333333332,13.802083333333332,0)" xlink:href="#aJ"/></g><g id="aa"><use transform="matrix(0.013020833333333332,0,0,0.013020833333333332,0,0)" xlink:href="#as"/><use transform="matrix(0.013020833333333332,0,0,0.013020833333333332,13.802083333333332,0)" xlink:href="#ak"/><use transform="matrix(0.013020833333333332,0,0,0.013020833333333332,27.604166666666664,0)" xlink:href="#ap"/><use transform="matrix(0.013020833333333332,0,0,0.013020833333333332,41.40625,0)" xlink:href="#ai"/></g><g id="ab"><use transform="matrix(0.013020833333333332,0,0,0.013020833333333332,0,0)" xlink:href="#ah"/><use transform="matrix(0.013020833333333332,0,0,0.013020833333333332,13.802083333333332,0)" xlink:href="#ao"/><use transform="matrix(0.013020833333333332,0,0,0.013020833333333332,27.604166666666664,0)" xlink:href="#an"/><use transform="matrix(0.013020833333333332,0,0,0.013020833333333332,41.40625,0)" xlink:href="#ai"/><use transform="matrix(0.013020833333333332,0,0,0.013020833333333332,55.20833333333333,0)" xlink:href="#ag"/><use transform="matrix(0.013020833333333332,0,0,0.013020833333333332,69.01041666666666,0)" xlink:href="#al"/></g><g id="ac"><use transform="matrix(0.013020833333333332,0,0,0.013020833333333332,0,0)" xlink:href="#ar"/><use transform="matrix(0.013020833333333332,0,0,0.013020833333333332,13.802083333333332,0)" xlink:href="#ay"/><use transform="matrix(0.013020833333333332,0,0,0.013020833333333332,27.604166666666664,0)" xlink:href="#aj"/><use transform="matrix(0.013020833333333332,0,0,0.013020833333333332,41.40625,0)" xlink:href="#ai"/></g><path fill="#3a414a" d="M613-1319l-16 888H431l-16-888h198zM388-270h250V0H388v-270" id="bJ"/><g id="ad"><use transform="matrix(0.013020833333333332,0,0,0.013020833333333332,0,0)" xlink:href="#as"/><use transform="matrix(0.013020833333333332,0,0,0.013020833333333332,13.802083333333332,0)" xlink:href="#az"/><use transform="matrix(0.013020833333333332,0,0,0.013020833333333332,27.604166666666664,0)" xlink:href="#ag"/><use transform="matrix(0.013020833333333332,0,0,0.013020833333333332,41.40625,0)" xlink:href="#av"/><use transform="matrix(0.013020833333333332,0,0,0.013020833333333332,55.20833333333333,0)" xlink:href="#ai"/><use transform="matrix(0.013020833333333332,0,0,0.013020833333333332,69.01041666666666,0)" xlink:href="#bJ"/></g></defs></g></svg>